<svg width="129" height="78" viewBox="0 0 129 78" fill="none" xmlns="http://www.w3.org/2000/svg">
<path d="M118.25 0H10.75C4.8151 0 0 3.7433 0 8.35714V69.6429C0 74.2567 4.8151 78 10.75 78H118.25C124.185 78 129 74.2567 129 69.6429V8.35714C129 3.7433 124.185 0 118.25 0ZM39.4167 16.7143C47.3224 16.7143 53.75 21.7112 53.75 27.8571C53.75 34.0031 47.3224 39 39.4167 39C31.5109 39 25.0833 34.0031 25.0833 27.8571C25.0833 21.7112 31.5109 16.7143 39.4167 16.7143ZM64.5 57.9429C64.5 59.7884 62.2604 61.2857 59.4833 61.2857H19.35C16.5729 61.2857 14.3333 59.7884 14.3333 57.9429V54.6C14.3333 49.0634 21.0745 44.5714 29.3833 44.5714H30.5031C33.2578 45.4594 36.2589 45.9643 39.4167 45.9643C42.5745 45.9643 45.5979 45.4594 48.3302 44.5714H49.45C57.7589 44.5714 64.5 49.0634 64.5 54.6V57.9429ZM114.667 48.75C114.667 49.5161 113.86 50.1429 112.875 50.1429H80.625C79.6396 50.1429 78.8333 49.5161 78.8333 48.75V45.9643C78.8333 45.1982 79.6396 44.5714 80.625 44.5714H112.875C113.86 44.5714 114.667 45.1982 114.667 45.9643V48.75ZM114.667 37.6071C114.667 38.3732 113.86 39 112.875 39H80.625C79.6396 39 78.8333 38.3732 78.8333 37.6071V34.8214C78.8333 34.0554 79.6396 33.4286 80.625 33.4286H112.875C113.86 33.4286 114.667 34.0554 114.667 34.8214V37.6071ZM114.667 26.4643C114.667 27.2304 113.86 27.8571 112.875 27.8571H80.625C79.6396 27.8571 78.8333 27.2304 78.8333 26.4643V23.6786C78.8333 22.9125 79.6396 22.2857 80.625 22.2857H112.875C113.86 22.2857 114.667 22.9125 114.667 23.6786V26.4643Z" fill="black"/>
</svg>
