<?xml version="1.0" standalone="no"?>
<!DOCTYPE svg PUBLIC "-//W3C//DTD SVG 20010904//EN"
 "http://www.w3.org/TR/2001/REC-SVG-20010904/DTD/svg10.dtd">
<svg version="1.0" xmlns="http://www.w3.org/2000/svg"
 width="575.000000pt" height="650.000000pt" viewBox="0 0 575.000000 650.000000"
 preserveAspectRatio="xMidYMid meet">

<g transform="translate(0.000000,650.000000) scale(0.100000,-0.100000)"
fill="#000000" stroke="none">
<path d="M2808 6251 c-12 -16 -345 -386 -382 -424 -7 -7 -61 -66 -121 -132
-60 -66 -152 -167 -206 -225 -278 -303 -369 -403 -369 -411 0 -14 18 -11 23 4
2 6 7 9 11 6 3 -3 -11 -25 -31 -49 -31 -36 -33 -41 -15 -36 32 10 27 -5 -12
-43 -20 -19 -32 -40 -29 -48 3 -7 -3 -23 -12 -33 -19 -21 -7 -28 13 -8 7 7 12
8 12 3 0 -5 -14 -24 -32 -42 -18 -18 -27 -33 -21 -33 7 0 15 5 18 10 3 6 11
10 18 10 6 0 -6 -18 -28 -40 -21 -22 -36 -43 -32 -46 3 -4 13 1 22 10 33 33
26 15 -9 -25 -24 -26 -35 -46 -31 -58 3 -11 -3 -25 -15 -36 -11 -10 -17 -22
-13 -28 4 -6 11 -3 19 8 8 10 16 16 19 13 3 -2 -11 -21 -30 -41 -34 -35 -44
-57 -26 -57 5 0 11 7 15 15 3 8 10 15 17 15 6 0 -8 -21 -30 -47 -23 -25 -39
-48 -36 -51 3 -3 11 0 17 6 7 7 16 12 21 12 4 0 -8 -20 -29 -45 -20 -25 -34
-49 -30 -53 4 -4 12 1 17 11 6 9 15 17 21 17 6 0 -8 -20 -31 -45 -38 -41 -51
-65 -35 -65 4 0 13 8 20 17 7 10 16 15 20 10 4 -4 -12 -27 -35 -51 -24 -25
-40 -49 -36 -55 4 -8 13 -4 25 11 11 13 19 19 20 15 0 -5 -18 -29 -40 -54 -22
-25 -40 -50 -40 -54 0 -14 16 -10 30 6 7 9 15 13 18 11 2 -3 -14 -26 -37 -52
-55 -62 -56 -80 -3 -47 21 13 17 6 -17 -32 -25 -28 -50 -53 -55 -57 -20 -13 5
-22 25 -9 35 21 30 7 -16 -45 -28 -33 -41 -55 -35 -63 5 -10 12 -7 24 10 10
15 16 18 16 9 0 -8 -21 -36 -47 -62 -37 -37 -44 -51 -35 -60 9 -9 15 -8 26 8
8 10 17 16 21 12 4 -4 -16 -31 -44 -61 -38 -40 -48 -56 -39 -65 8 -8 14 -7 24
6 7 9 16 14 19 10 4 -4 -14 -32 -40 -63 -36 -41 -45 -59 -37 -67 8 -8 13 -7
18 5 3 9 10 17 15 17 20 0 6 -24 -43 -76 -42 -45 -49 -57 -38 -65 11 -6 20 -3
33 12 13 17 17 18 17 5 0 -9 -23 -41 -51 -72 -38 -42 -48 -59 -39 -68 8 -8 15
-7 24 7 7 9 16 17 19 17 14 0 -9 -38 -54 -91 -35 -41 -45 -59 -37 -67 8 -8 16
-5 29 11 11 13 18 17 19 9 0 -8 5 -10 13 -6 12 7 -20 -31 -86 -102 -26 -28
-35 -44 -27 -49 6 -4 20 1 31 11 18 16 19 16 19 -5 0 -14 -23 -46 -57 -82 -45
-48 -54 -62 -43 -69 10 -6 21 -3 36 11 20 19 21 19 19 0 -1 -11 -27 -49 -59
-86 -43 -49 -56 -69 -48 -77 9 -9 17 -6 33 8 20 17 22 17 16 2 -4 -11 -2 -18
6 -18 8 0 8 -3 2 -8 -5 -4 -37 -36 -70 -70 -46 -48 -57 -64 -47 -74 9 -9 18
-6 38 13 l26 24 -8 -29 c-5 -22 -4 -27 6 -21 9 5 11 4 6 -4 -4 -6 -12 -9 -17
-6 -5 4 -9 0 -9 -7 0 -8 -21 -34 -46 -58 -57 -57 -71 -80 -53 -91 9 -5 21 1
36 19 l22 27 -6 -40 c-4 -32 -18 -53 -69 -105 -35 -36 -64 -68 -64 -72 0 -18
34 -15 51 4 l19 23 -6 -40 c-5 -31 -20 -54 -70 -105 -35 -36 -64 -68 -64 -72
0 -18 36 -16 58 4 25 23 25 23 13 1 -6 -12 -11 -30 -11 -39 0 -15 4 -14 27 7
45 40 7 -7 -77 -94 -41 -43 -76 -82 -78 -86 -2 -5 5 -12 15 -15 12 -5 24 0 37
16 l19 23 -7 -40 -8 -40 24 20 23 20 -20 -25 c-10 -14 -53 -60 -94 -102 -71
-74 -74 -78 -56 -92 18 -13 22 -11 44 18 14 19 21 23 17 11 -4 -11 -12 -40
-19 -65 -8 -35 -27 -62 -81 -118 -58 -59 -68 -74 -56 -82 23 -14 29 -12 55 18
l25 27 -20 -59 c-11 -33 -18 -61 -16 -63 2 -2 75 71 162 162 88 90 166 167
174 170 8 4 -56 -65 -142 -152 -343 -346 -343 -346 -318 -357 18 -8 26 -6 40
12 18 22 37 31 25 12 -12 -19 -32 -110 -25 -110 4 0 37 32 74 70 36 39 66 67
66 63 0 -4 -68 -76 -151 -159 -144 -145 -151 -152 -130 -164 19 -10 26 -8 48
16 l25 28 -7 -35 c-4 -19 -14 -49 -21 -68 -8 -18 -14 -37 -14 -42 0 -5 84 75
186 178 102 104 182 181 178 173 -4 -8 -121 -129 -258 -268 -138 -139 -252
-256 -254 -261 -3 -9 37 -37 42 -29 22 31 46 59 46 52 0 -5 -11 -40 -25 -78
-14 -38 -25 -75 -25 -82 0 -7 87 74 193 179 105 106 163 161 127 123 -36 -39
-156 -162 -267 -275 -112 -112 -203 -210 -203 -217 0 -7 9 -16 20 -19 15 -5
26 1 42 20 11 14 22 24 24 22 2 -2 -7 -35 -22 -73 -14 -38 -27 -81 -29 -96
l-4 -28 117 0 c112 0 117 1 146 28 17 15 23 18 13 6 -25 -30 -22 -34 23 -34
25 0 40 5 40 13 0 9 2 9 9 -1 15 -25 109 -3 94 21 -2 4 1 6 8 5 6 -2 14 3 17
11 3 10 0 11 -9 5 -12 -7 -12 -5 0 9 11 13 11 17 1 17 -8 0 -10 3 -6 7 4 5 14
0 21 -10 9 -13 15 -15 20 -6 4 6 1 15 -6 20 -14 9 -13 9 28 13 7 1 13 5 13 9
0 29 -1 31 -10 17 -5 -8 -11 -12 -14 -10 -2 3 7 19 20 35 15 18 22 22 18 11
-5 -12 -4 -17 2 -13 6 3 16 2 24 -3 12 -7 0 -24 -55 -80 l-69 -70 92 0 c67 0
92 3 92 13 1 6 12 26 26 42 l25 30 -7 -42 -7 -43 66 0 66 0 110 108 109 107
31 136 c26 111 37 141 58 160 l26 24 -7 -40 c-4 -22 -14 -69 -22 -105 -8 -36
-17 -76 -20 -90 -4 -17 47 28 172 152 98 98 181 175 183 172 3 -3 -135 -144
-307 -315 l-312 -309 74 0 74 0 10 43 c6 23 23 54 38 67 l27 25 -8 -40 c-3
-22 -9 -52 -12 -67 -5 -28 -5 -28 50 -28 60 0 57 -2 245 178 19 18 37 30 40
27 3 -3 -41 -50 -99 -105 l-104 -99 93 -1 c93 0 133 12 155 47 14 22 24 14 19
-16 -3 -22 0 -29 12 -28 9 1 91 76 181 166 91 91 165 158 165 150 0 -8 -70
-83 -156 -167 l-157 -152 147 0 c91 0 146 4 146 10 0 6 5 10 11 10 5 0 7 -4 4
-10 -4 -6 6 -10 22 -10 29 0 29 0 40 90 10 73 17 96 40 125 15 19 30 30 31 25
2 -6 -1 -47 -7 -92 -6 -45 -11 -96 -11 -115 0 -32 2 -33 38 -33 32 0 46 9 112
73 48 46 76 80 76 94 0 12 -4 19 -9 16 -5 -3 -6 -11 -3 -19 3 -8 1 -14 -4 -14
-31 0 2 47 90 129 93 86 100 91 100 65 l0 -27 44 39 c51 45 53 49 26 51 -11 1
-20 -2 -20 -8 0 -5 -4 -9 -10 -9 -20 0 -9 19 23 41 17 12 26 16 20 9 -17 -19
-16 -27 4 -27 9 0 60 44 114 96 l97 96 7 163 c5 111 11 162 19 162 6 0 20 9
29 21 21 23 16 25 84 -21 l53 -35 0 -85 0 -86 50 -29 c46 -27 50 -32 52 -70 1
-37 2 -37 5 -7 2 17 7 32 9 32 3 0 24 -13 47 -29 86 -58 179 -111 188 -105 5
3 9 -1 9 -8 0 -7 53 -45 118 -83 114 -69 117 -71 116 -105 -1 -26 0 -28 3 -7
5 32 5 32 43 12 26 -13 30 -21 30 -55 0 -43 -2 -45 -31 -30 -27 15 -23 -1 7
-25 14 -11 26 -29 28 -39 1 -11 30 -39 64 -64 l62 -44 0 49 c-1 26 -7 110 -13
186 -10 109 -10 137 -1 137 7 0 16 -4 19 -10 3 -5 16 -15 28 -20 17 -9 16 -6
-6 13 -17 14 -25 29 -22 39 4 11 -65 61 -267 192 -544 354 -651 424 -659 438
-5 7 -9 8 -9 2 0 -15 -760 -767 -796 -787 -10 -6 -12 -3 -8 8 3 8 10 15 14 15
8 0 20 66 26 140 7 104 17 147 42 184 35 51 37 38 19 -124 -8 -69 -14 -126
-13 -126 1 -1 48 42 105 96 67 64 100 103 95 111 -4 7 -3 10 4 5 12 -7 54 33
47 44 -3 4 3 7 13 6 10 0 17 6 17 16 0 9 4 20 9 25 5 4 6 3 2 -4 -4 -7 -3 -13
2 -13 15 0 34 28 27 39 -3 7 0 8 10 5 10 -4 15 -2 13 7 -2 7 4 13 12 14 9 0
14 8 12 20 -2 13 0 16 5 8 6 -8 54 33 153 130 l144 142 4 135 c4 129 6 136 31
162 14 15 29 28 32 28 3 0 32 -17 63 -37 l56 -37 0 -82 0 -81 45 -29 c44 -27
45 -29 45 -81 0 -29 -3 -53 -7 -53 -3 0 -21 12 -40 26 -19 14 -37 23 -40 20
-4 -3 -4 -8 -2 -9 6 -6 249 -160 284 -181 l30 -18 -30 26 c-16 15 -43 34 -59
42 -15 9 -50 32 -77 51 -47 34 -49 36 -49 85 l0 50 33 -21 c17 -12 67 -42 110
-68 l77 -47 2 -45 c1 -43 2 -44 5 -9 l4 37 67 -43 c37 -24 86 -53 108 -66 40
-21 42 -24 47 -83 4 -45 11 -65 28 -81 21 -19 22 -19 7 -1 -20 25 -33 129 -15
121 7 -3 20 -9 29 -12 12 -4 19 -22 23 -63 3 -31 10 -63 14 -71 9 -17 103 -91
109 -85 2 2 -2 73 -8 158 -12 152 -11 156 9 178 l20 22 -107 70 c-355 233
-522 349 -517 357 3 5 -8 18 -23 29 -21 15 -28 27 -27 48 2 18 1 20 -2 6 -5
-26 -13 -29 -31 -11 -7 7 -12 9 -12 6 0 -4 20 -21 45 -39 64 -46 48 -48 -19
-3 -35 23 -52 40 -45 44 8 6 8 10 -2 16 -8 4 -14 3 -17 -5 -4 -11 -63 25 -87
54 -33 40 -39 34 -425 -345 -206 -203 -377 -365 -379 -359 -2 6 2 15 9 19 7 4
10 17 7 29 -3 12 -1 19 4 15 13 -8 11 10 -3 24 -9 9 -8 12 5 12 10 0 14 5 11
14 -3 8 -1 47 5 87 9 52 19 80 38 103 l26 31 -6 -70 c-4 -38 -10 -95 -13 -125
l-6 -55 58 56 c33 31 174 169 315 308 l256 251 6 117 c6 108 9 119 32 142 l25
26 36 -20 c73 -39 81 -52 77 -137 l-3 -76 43 -25 c38 -23 43 -24 50 -9 5 12 6
9 3 -8 -4 -23 8 -33 137 -113 78 -49 177 -113 219 -143 73 -51 77 -56 80 -96
2 -28 7 -42 16 -41 6 2 12 -3 12 -10 0 -12 148 -123 154 -116 2 2 0 49 -5 104
-4 55 -8 119 -9 143 0 41 1 42 23 31 19 -11 20 -10 9 3 -7 9 -10 23 -6 32 3 9
2 16 -4 16 -9 0 -92 56 -405 273 -115 79 -300 208 -378 263 l-45 32 -363 -359
c-200 -197 -368 -359 -372 -359 -5 0 -9 5 -9 11 0 5 5 7 10 4 10 -6 25 44 24
78 -1 9 6 17 14 17 11 0 13 3 6 10 -7 7 -8 33 -2 78 7 50 15 73 33 91 14 14
26 23 28 20 2 -2 -2 -49 -8 -104 -6 -55 -10 -102 -8 -105 2 -2 136 128 297
289 l293 293 7 106 c6 96 9 110 33 134 l26 27 53 -37 53 -37 1 -77 c0 -76 0
-76 38 -106 20 -16 85 -61 145 -101 97 -65 107 -74 108 -104 2 -30 2 -30 6 -4
l4 27 97 -67 c53 -37 103 -73 110 -80 6 -6 21 -15 32 -18 11 -3 20 -15 20 -25
0 -10 4 -21 9 -24 5 -3 7 -14 5 -24 -2 -12 12 -27 48 -50 28 -18 52 -31 53
-30 1 2 -3 58 -8 125 -9 108 -8 124 7 138 9 9 16 20 16 23 0 4 -24 22 -52 40
-29 18 -84 55 -123 83 -38 27 -108 76 -155 107 -47 32 -137 96 -200 143 -63
46 -135 98 -160 115 -25 17 -63 43 -84 57 -21 15 -44 27 -50 27 -6 0 -5 -4 3
-9 9 -6 -78 -99 -330 -349 -189 -187 -345 -339 -348 -337 -2 2 4 11 13 20 9 9
16 27 16 41 0 13 3 24 8 24 4 0 8 29 8 65 1 51 7 73 25 100 23 33 24 34 27 11
2 -13 -1 -55 -6 -92 -5 -38 -8 -71 -6 -73 2 -2 130 122 285 276 l282 280 5 99
c5 95 18 134 41 120 5 -4 11 0 13 6 3 9 20 1 51 -22 l46 -35 1 -76 c0 -68 3
-78 23 -92 12 -8 31 -24 43 -35 11 -11 65 -50 120 -87 54 -37 117 -82 139 -99
22 -18 65 -47 95 -66 30 -19 63 -43 72 -53 10 -9 25 -17 33 -17 8 0 15 -7 15
-16 0 -12 -4 -14 -12 -7 -19 14 -50 24 -44 14 5 -8 153 -111 159 -111 1 0 -1
49 -6 110 -7 96 -6 112 8 126 19 19 36 4 -160 143 -204 144 -385 276 -494 358
l-96 73 -59 -63 c-73 -78 -499 -508 -556 -562 -24 -22 -40 -34 -36 -28 9 16
17 50 21 87 10 89 17 115 42 137 23 22 25 22 20 4 -3 -11 -8 -51 -12 -90 l-7
-70 67 65 c37 36 161 163 276 282 l209 216 0 74 c0 66 3 77 24 97 l25 23 45
-33 46 -32 0 -77 c0 -77 0 -78 34 -101 19 -13 38 -33 41 -44 5 -18 7 -18 13
-3 6 14 21 7 94 -45 65 -46 87 -68 88 -84 0 -13 4 -23 10 -23 5 0 7 7 4 15 -4
8 -3 15 0 15 11 0 150 -103 177 -130 14 -15 31 -29 38 -31 6 -2 13 -12 15 -21
1 -9 26 -33 55 -52 l53 -36 -6 38 c-17 119 -17 169 -2 175 25 10 19 22 -26 52
-24 16 -155 112 -293 215 -137 102 -281 209 -320 238 -69 50 -70 51 -87 32 -9
-11 -18 -20 -20 -20 -2 0 -2 35 0 78 3 62 8 81 25 99 l22 22 48 -35 47 -36 0
-72 0 -72 123 -90 c67 -49 171 -126 232 -171 60 -46 115 -83 121 -83 7 0 14
-9 17 -19 4 -15 75 -71 90 -71 1 0 -1 39 -5 86 -6 71 -5 89 8 101 18 18 18 18
-68 80 -36 26 -190 141 -341 255 l-275 207 -123 -126 c-248 -251 -481 -483
-485 -483 -2 0 2 11 11 24 8 12 18 47 21 77 3 31 15 68 27 86 26 39 32 25 19
-46 -5 -28 -6 -51 -3 -51 4 0 117 111 251 246 l244 246 3 66 c3 50 8 70 23 84
25 23 25 23 71 -13 39 -30 39 -31 39 -102 l0 -72 39 -28 c22 -15 42 -27 46
-27 6 0 156 -108 165 -119 3 -4 34 -28 70 -53 36 -26 84 -64 106 -85 23 -21
63 -53 89 -72 l48 -34 -7 82 c-7 73 -5 84 11 97 16 13 16 15 2 24 -34 20 -548
410 -611 463 -47 39 -48 40 -68 22 -20 -18 -20 -17 -20 42 0 50 4 63 24 83
l25 23 40 -33 c40 -31 41 -33 41 -95 l0 -63 136 -103 c294 -224 370 -281 388
-291 18 -10 19 -7 12 65 -5 62 -4 76 9 80 24 10 18 20 -38 57 -28 19 -101 73
-162 120 -60 47 -162 126 -225 175 -63 49 -135 106 -160 128 l-44 38 -54 -58
c-32 -34 -39 -40 -18 -14 31 38 36 52 36 96 0 39 5 56 20 70 19 17 21 17 60
-10 37 -26 40 -31 41 -79 1 -28 1 -54 0 -58 0 -4 16 -20 37 -35 20 -15 60 -46
88 -68 65 -52 89 -70 175 -136 39 -30 91 -71 116 -92 24 -20 58 -44 74 -52
l29 -16 0 64 c0 37 5 68 13 76 10 10 9 14 -5 22 -36 20 -384 290 -535 416
l-74 61 -36 -36 c-20 -21 -29 -28 -21 -17 8 11 18 42 22 70 3 28 14 58 25 69
19 19 20 18 59 -13 38 -30 40 -34 38 -79 -3 -43 0 -50 34 -79 44 -38 345 -274
417 -326 l51 -37 -5 61 c-5 46 -2 63 8 70 11 8 8 14 -15 32 -16 12 -86 67
-155 122 -69 55 -138 109 -152 120 -15 11 -70 56 -124 100 -53 44 -108 89
-121 99 -24 20 -24 20 -39 0 -13 -18 -14 -16 -15 25 0 32 6 51 21 67 l21 23
39 -31 c35 -28 39 -36 39 -78 0 -44 3 -50 42 -81 23 -19 67 -54 97 -80 31 -25
121 -96 200 -158 l144 -114 -7 57 c-5 45 -3 60 9 73 15 14 13 18 -21 41 -20
13 -44 31 -53 38 -9 7 -99 79 -201 160 -102 81 -209 167 -238 192 -50 43 -53
44 -71 28 -19 -17 -19 -16 -14 26 3 24 14 52 24 62 17 19 18 19 53 -10 29 -24
35 -36 35 -71 1 -42 2 -43 137 -150 75 -59 175 -141 223 -180 47 -40 89 -73
94 -73 4 0 7 19 7 43 0 24 5 48 12 55 10 10 8 15 -7 26 -11 8 -59 45 -106 83
-234 186 -348 280 -386 317 l-43 40 -42 -39 c-24 -22 -33 -28 -20 -14 14 16
22 38 22 61 0 22 7 41 20 53 19 17 21 17 55 -9 30 -23 35 -33 35 -69 1 -42 2
-43 131 -147 160 -130 211 -170 272 -215 l49 -36 -3 43 c-2 24 1 50 5 57 5 7
4 16 0 20 -5 5 -47 39 -94 76 -170 138 -350 287 -350 291 0 6 68 -47 226 -176
71 -58 146 -119 168 -135 l38 -29 -6 44 c-4 29 -2 46 6 51 9 6 8 13 -5 27 -20
22 -23 92 -5 110 6 6 10 13 7 15 -45 34 -95 73 -99 77 -3 3 -45 38 -93 78
-112 91 -174 144 -250 210 -47 41 -63 50 -73 41 -11 -9 -14 -6 -14 19 0 37 22
57 47 44 32 -18 56 -51 50 -71 -3 -11 0 -27 7 -35 18 -23 386 -326 397 -326 3
0 3 14 1 31 -3 20 0 35 9 40 11 8 7 16 -20 37 -77 60 -350 289 -405 338 -54
49 -60 52 -72 36 -12 -15 -13 -14 -14 14 0 17 8 38 18 47 17 16 20 15 50 -16
19 -20 32 -43 32 -58 0 -27 9 -35 265 -248 l120 -99 3 31 c2 18 9 35 15 40 9
5 7 10 -5 18 -20 11 -25 78 -7 96 7 7 2 16 -18 28 -34 23 -363 304 -363 310 0
3 41 -30 91 -72 272 -232 264 -225 267 -195 2 15 8 30 14 33 5 3 -2 15 -16 27
-29 22 -34 34 -12 26 11 -4 13 0 9 16 -3 13 0 25 7 30 9 6 5 15 -17 36 -16 16
-24 26 -19 22 17 -13 24 -9 19 11 -3 10 1 22 8 26 9 6 4 15 -17 34 -16 14 -25
23 -20 19 17 -13 28 -9 22 8 -4 9 -2 22 4 29 7 9 -7 26 -53 65 -34 29 -69 60
-77 69 -13 13 -13 13 5 1 11 -8 40 -32 65 -53 l45 -38 7 28 c5 18 3 32 -6 41
-14 15 -10 62 6 62 6 0 4 7 -3 16 -17 21 -20 45 -8 60 6 8 -1 19 -25 34 -18
13 -39 33 -46 44 -8 14 -3 12 19 -8 33 -32 35 -32 45 2 5 14 3 22 -4 22 -8 0
-11 11 -7 33 4 28 -2 38 -47 82 -29 28 -35 35 -15 16 35 -31 39 -32 54 -18 14
15 13 19 -18 49 -18 18 -23 25 -11 15 21 -17 22 -17 27 2 3 12 1 24 -4 27 -13
8 -11 44 3 44 7 0 5 7 -5 18 -12 13 -13 22 -5 36 8 15 7 22 -6 32 -15 11 -15
14 -2 26 13 11 11 17 -18 43 -17 17 -24 23 -13 15 16 -12 19 -12 27 0 5 9 5
19 -2 27 -5 7 -7 20 -4 29 4 9 2 22 -4 29 -8 9 -8 15 0 20 8 5 8 11 -1 21 -6
7 -8 21 -5 30 4 10 -1 26 -11 37 -10 11 -13 17 -6 14 15 -9 27 9 12 18 -5 4
-8 14 -5 22 4 9 2 21 -4 28 -8 10 -8 15 0 20 8 5 2 18 -17 38 -15 17 -20 25
-10 18 9 -8 21 -11 25 -7 10 10 -270 276 -285 271 -16 -5 -17 11 -2 20 5 4 44
-26 85 -67 79 -78 102 -93 90 -62 -5 13 6 7 31 -16 48 -45 54 -53 42 -60 -5
-4 -1 -14 10 -24 16 -15 19 -15 24 -1 4 9 1 15 -9 15 -12 0 -13 4 -3 22 11 21
2 31 -122 150 -74 70 -137 128 -141 128 -4 0 -13 -9 -20 -19z m52 -30 c15 -30
12 -36 -9 -17 -11 10 -25 15 -30 11 -12 -7 -15 8 -4 18 12 13 32 7 43 -12z
m61 -88 c13 -16 12 -17 -3 -4 -10 7 -18 15 -18 17 0 8 8 3 21 -13z m-51 -25
c0 -12 -14 -10 -28 4 -19 19 -14 29 8 16 11 -7 20 -16 20 -20z m-15 -28 c27
-30 12 -34 -15 -5 -13 14 -19 25 -13 25 5 0 18 -9 28 -20z m-3 -37 c28 -33 31
-48 5 -24 -14 12 -30 20 -36 16 -12 -7 -15 7 -4 18 10 11 19 8 35 -10z m49
-10 c13 -16 12 -17 -3 -4 -10 7 -18 15 -18 17 0 8 8 3 21 -13z m-49 -30 c10
-9 18 -23 18 -32 -1 -12 -5 -11 -20 7 -11 13 -24 21 -30 17 -11 -7 -14 8 -3
18 9 10 15 9 35 -10z m-238 -18 c-6 -16 -24 -21 -24 -7 0 11 11 22 21 22 5 0
6 -7 3 -15z m238 -32 c10 -9 18 -21 18 -26 0 -6 -9 -2 -20 8 -11 10 -26 15
-36 11 -14 -5 -15 -4 -4 9 16 19 19 19 42 -2z m-232 -6 c0 -2 -12 -14 -26 -28
l-27 -24 18 28 c14 22 35 36 35 24z m250 -70 c0 -6 -10 -1 -23 11 -18 17 -26
19 -35 10 -7 -7 -12 -8 -12 -2 0 6 5 15 12 22 9 9 17 7 35 -10 13 -12 23 -26
23 -31z m196 1 l29 -33 -32 29 c-31 28 -38 36 -30 36 2 0 16 -15 33 -32z
m-466 2 c0 -5 -5 -10 -11 -10 -5 0 -7 5 -4 10 3 6 8 10 11 10 2 0 4 -4 4 -10z
m253 -25 c19 -27 8 -35 -13 -10 -10 12 -16 13 -26 4 -17 -14 -19 2 -2 19 16
16 20 15 41 -13z m18 -78 l33 -42 -40 38 c-31 29 -43 34 -52 25 -7 -7 -12 -8
-12 -2 0 14 22 34 31 28 4 -2 22 -23 40 -47z m99 8 c13 -14 21 -25 18 -25 -2
0 -15 11 -28 25 -13 14 -21 25 -18 25 2 0 15 -11 28 -25z m-388 -7 c-7 -7 -12
-8 -12 -2 0 14 12 26 19 19 2 -3 -1 -11 -7 -17z m273 -28 c10 -11 15 -23 12
-27 -4 -3 -16 4 -27 18 -18 19 -23 21 -30 9 -6 -8 -10 -10 -10 -4 0 29 30 32
55 4z m115 -15 c19 -19 32 -35 29 -35 -3 0 -20 16 -39 35 -19 19 -32 35 -29
35 3 0 20 -16 39 -35z m45 15 c3 -5 1 -10 -4 -10 -6 0 -11 5 -11 10 0 6 2 10
4 10 3 0 8 -4 11 -10z m53 -15 c-3 -3 -9 2 -12 12 -6 14 -5 15 5 6 7 -7 10
-15 7 -18z m-478 11 c0 -3 -4 -8 -10 -11 -5 -3 -10 -1 -10 4 0 6 5 11 10 11 6
0 10 -2 10 -4z m260 -51 c13 -14 19 -25 13 -25 -6 0 -16 7 -23 15 -7 9 -19 14
-27 11 -14 -6 -18 6 -6 17 11 11 18 8 43 -18z m115 -5 c10 -11 16 -20 13 -20
-3 0 -13 9 -23 20 -10 11 -16 20 -13 20 3 0 13 -9 23 -20z m121 -12 l29 -33
-32 29 c-31 28 -38 36 -30 36 2 0 16 -15 33 -32z m-27 -31 c-2 -3 -15 10 -28
27 l-24 31 28 -27 c16 -15 27 -29 24 -31z m-185 -44 c5 -11 -5 -6 -27 15 -30
29 -35 31 -41 16 -4 -9 -9 -14 -13 -10 -3 3 2 14 11 25 17 19 18 18 40 -4 13
-13 26 -31 30 -42z m21 37 c10 -11 16 -20 13 -20 -3 0 -13 9 -23 20 -10 11
-16 20 -13 20 3 0 13 -9 23 -20z m-325 -5 c-7 -8 -20 -14 -29 -14 -13 1 -13 2
2 6 9 2 17 9 17 14 0 5 5 9 11 9 8 0 8 -5 -1 -15z m395 -5 c10 -11 16 -20 13
-20 -3 0 -13 9 -23 20 -10 11 -16 20 -13 20 3 0 13 -9 23 -20z m115 -46 c0 -3
-13 4 -30 16 -16 12 -30 24 -30 26 0 3 14 -4 30 -16 17 -12 30 -24 30 -26z
m-233 0 c13 -14 22 -29 19 -32 -7 -6 -56 37 -56 50 0 14 12 9 37 -18z m252
-79 c2 -5 -21 15 -52 44 -32 30 -57 56 -57 59 0 7 104 -91 109 -103z m-529 80
c-7 -9 -15 -13 -17 -11 -7 7 7 26 19 26 6 0 6 -6 -2 -15z m240 -5 c0 -5 -4
-10 -10 -10 -5 0 -10 5 -10 10 0 6 5 10 10 10 6 0 10 -4 10 -10z m200 -45 c13
-14 21 -25 18 -25 -2 0 -15 11 -28 25 -13 14 -21 25 -18 25 2 0 15 -11 28 -25z
m-454 -11 c-30 -21 -42 -17 -15 5 13 11 26 17 29 14 3 -2 -4 -11 -14 -19z
m309 -23 c9 -23 -2 -24 -25 -1 -17 17 -24 19 -36 9 -11 -9 -14 -8 -14 3 0 29
21 38 46 20 13 -9 26 -23 29 -31z m115 4 c19 -19 32 -35 29 -35 -3 0 -20 16
-39 35 -19 19 -32 35 -29 35 3 0 20 -16 39 -35z m94 -34 c-5 -6 -34 20 -34 30
0 5 8 1 18 -8 10 -10 17 -20 16 -22z m-524 -6 c-7 -8 -19 -15 -27 -15 -10 0
-8 6 8 19 27 22 38 19 19 -4z m299 -12 c27 -33 18 -43 -12 -15 -18 17 -26 19
-35 10 -13 -13 -15 -8 -6 16 9 24 30 19 53 -11z m52 0 c13 -16 12 -17 -3 -4
-10 7 -18 15 -18 17 0 8 8 3 21 -13z m229 -25 c0 -12 -6 -9 -26 13 -19 22 -19
22 4 8 12 -8 22 -17 22 -21z m-580 -13 c-7 -8 -17 -15 -22 -15 -6 0 -5 7 2 15
7 8 17 15 22 15 6 0 5 -7 -2 -15z m546 -17 l29 -33 -32 29 c-31 28 -38 36 -30
36 2 0 16 -15 33 -32z m-234 -31 c16 -31 1 -31 -26 -1 -21 24 -27 27 -35 14
-6 -8 -12 -12 -15 -9 -3 3 2 15 10 28 16 22 17 22 36 4 11 -10 24 -26 30 -36z
m139 -4 l34 -38 -40 35 c-22 19 -42 36 -44 38 -2 1 0 2 5 2 6 0 26 -17 45 -37z
m59 12 c13 -14 21 -25 18 -25 -2 0 -15 11 -28 25 -13 14 -21 25 -18 25 2 0 15
-11 28 -25z m-520 -30 c-7 -9 -15 -13 -18 -10 -3 2 1 11 8 20 7 9 15 13 18 10
3 -2 -1 -11 -8 -20z m302 -22 c10 -9 18 -21 18 -27 0 -5 19 -31 43 -55 37 -40
34 -39 -18 9 -33 30 -63 59 -67 64 -4 6 -13 4 -24 -5 -16 -13 -16 -12 -5 9 14
26 28 28 53 5z m-302 -32 c0 -12 -20 -25 -27 -18 -7 7 6 27 18 27 5 0 9 -4 9
-9z m297 -43 c34 -32 30 -55 -5 -29 -27 19 -30 19 -46 3 -16 -16 -17 -16 -10
3 8 23 24 45 32 45 3 0 16 -10 29 -22z m158 -18 c21 -22 37 -40 34 -40 -3 0
-23 18 -44 40 -21 22 -37 40 -34 40 3 0 23 -18 44 -40z m90 -10 c10 -11 16
-20 13 -20 -3 0 -13 9 -23 20 -10 11 -16 20 -13 20 3 0 13 -9 23 -20z m-560
-9 c-3 -6 -11 -11 -17 -11 -6 0 -6 6 2 15 14 17 26 13 15 -4z m312 -33 c26
-29 37 -69 17 -61 -8 3 -14 9 -14 14 0 4 -10 13 -21 20 -17 9 -23 8 -30 -2
-13 -21 -12 7 1 32 14 25 22 24 47 -3z m294 5 c13 -16 12 -17 -3 -4 -10 7 -18
15 -18 17 0 8 8 3 21 -13z m-70 -10 c13 -16 12 -17 -3 -4 -17 13 -22 21 -14
21 2 0 10 -8 17 -17z m-546 -33 c-10 -11 -20 -18 -23 -15 -7 6 18 35 31 35 5
0 2 -9 -8 -20z m145 16 c0 -2 -8 -10 -17 -17 -16 -13 -17 -12 -4 4 13 16 21
21 21 13z m365 -26 c10 -11 16 -20 13 -20 -3 0 -13 9 -23 20 -10 11 -16 20
-13 20 3 0 13 -9 23 -20z m-165 -76 c0 -7 17 -30 38 -50 22 -22 27 -30 12 -20
-14 9 -43 34 -64 56 -30 30 -43 37 -53 28 -17 -14 -18 17 0 37 10 11 16 9 40
-13 15 -14 27 -31 27 -38z m310 -51 c0 -7 -98 76 -107 90 -4 7 19 -10 50 -37
31 -27 57 -51 57 -53z m-650 81 c0 -7 -27 -34 -35 -34 -3 0 -1 9 5 20 10 18
30 28 30 14z m521 -41 c13 -16 12 -17 -3 -4 -17 13 -22 21 -14 21 2 0 10 -8
17 -17z m-571 -3 c0 -5 -2 -10 -4 -10 -3 0 -8 5 -11 10 -3 6 -1 10 4 10 6 0
11 -4 11 -10z m373 -38 c9 -8 17 -26 17 -40 l0 -26 -30 29 c-29 28 -30 28 -45
9 -14 -19 -14 -19 -15 0 0 25 29 58 44 49 6 -3 19 -13 29 -21z m-333 0 c0 -11
-22 -32 -32 -32 -5 0 -4 9 2 20 11 20 30 28 30 12z m545 -56 c6 -4 1 -4 -10 2
-11 6 -31 23 -45 39 l-25 28 35 -30 c19 -16 40 -34 45 -39z m-907 34 c-7 -10
-14 -17 -17 -15 -4 4 18 35 25 35 2 0 -1 -9 -8 -20z m977 -10 c10 -11 16 -20
13 -20 -3 0 -13 9 -23 20 -10 11 -16 20 -13 20 3 0 13 -9 23 -20z m-294 -51
c18 -12 29 -29 29 -44 0 -16 21 -43 68 -85 39 -37 46 -46 17 -22 -27 23 -72
62 -100 87 -45 41 -51 44 -62 28 -12 -16 -13 -16 -13 0 0 16 20 57 28 57 2 0
17 -9 33 -21z m-701 -14 c-7 -9 -15 -13 -18 -10 -3 2 1 11 8 20 7 9 15 13 18
10 3 -2 -1 -11 -8 -20z m370 17 c0 -5 -9 -17 -20 -27 -22 -20 -26 -14 -10 16
11 19 30 26 30 11z m-790 -12 c0 -5 -5 -10 -11 -10 -5 0 -7 5 -4 10 3 6 8 10
11 10 2 0 4 -4 4 -10z m1430 -126 c0 -9 -138 111 -139 120 -1 4 31 -20 69 -54
39 -34 70 -64 70 -66z m-690 96 c0 -5 -2 -10 -4 -10 -3 0 -8 5 -11 10 -3 6 -1
10 4 10 6 0 11 -4 11 -10z m-340 -56 c-18 -21 -24 -10 -9 18 8 14 14 18 17 10
2 -7 -2 -19 -8 -28z m380 13 c0 -8 -9 -22 -20 -32 -23 -21 -25 -16 -8 20 12
27 28 34 28 12z m342 -14 c15 -15 28 -37 28 -50 0 -29 -5 -29 -37 2 -21 18
-30 22 -40 13 -8 -6 -15 -9 -18 -7 -5 6 25 69 33 69 3 0 19 -12 34 -27z m179
-10 c13 -16 12 -17 -3 -4 -17 13 -22 21 -14 21 2 0 10 -8 17 -17z m-1061 -48
c-7 -9 -15 -13 -17 -11 -7 7 7 26 19 26 6 0 6 -6 -2 -15z m160 7 c0 -5 -9 -17
-21 -28 -21 -19 -21 -19 -8 9 12 26 29 37 29 19z m-272 -41 c-13 -15 -25 -27
-27 -25 -4 4 39 54 47 54 2 0 -7 -13 -20 -29z m642 22 c-1 -14 -30 -47 -36
-41 -8 8 14 48 26 48 6 0 10 -3 10 -7z m-570 -13 c0 -5 -5 -10 -11 -10 -5 0
-7 5 -4 10 3 6 8 10 11 10 2 0 4 -4 4 -10z m330 6 c0 -2 -8 -10 -17 -17 -16
-13 -17 -12 -4 4 13 16 21 21 21 13z m618 -72 c2 -19 18 -42 45 -67 23 -21 32
-32 19 -24 -13 8 -47 37 -76 65 -49 47 -54 50 -69 34 -16 -15 -17 -15 -17 4 0
11 7 30 16 42 l16 23 31 -24 c21 -16 33 -35 35 -53z m292 21 c13 -14 21 -25
18 -25 -2 0 -15 11 -28 25 -13 14 -21 25 -18 25 2 0 15 -11 28 -25z m-1220 -6
c-7 -11 -14 -18 -17 -15 -3 3 0 12 7 21 18 21 23 19 10 -6z m148 -18 c-7 -12
-16 -21 -21 -21 -8 0 -2 14 16 38 16 20 20 6 5 -17z m182 26 c0 -2 -12 -14
-27 -28 l-28 -24 24 28 c23 25 31 32 31 24z m70 -1 c0 -2 -8 -10 -17 -17 -16
-13 -17 -12 -4 4 13 16 21 21 21 13z m755 -44 c-3 -3 -16 5 -28 17 l-22 23 28
-17 c15 -10 25 -20 22 -23z m-1460 -1 c-3 -6 -11 -11 -17 -11 -6 0 -6 6 2 15
14 17 26 13 15 -4z m842 4 c0 -8 -9 -22 -19 -32 -24 -21 -25 3 -1 29 20 22 20
22 20 3z m-561 -47 c-18 -26 -22 -17 -5 14 6 11 13 17 16 15 3 -3 -2 -16 -11
-29z m1270 -30 c4 -7 -9 1 -29 16 -20 16 -37 30 -37 33 0 7 58 -36 66 -49z
m-1120 4 c-14 -14 -16 -14 -16 -1 0 20 23 44 29 28 2 -6 -4 -18 -13 -27z m354
35 c0 -2 -10 -12 -22 -23 l-23 -19 19 23 c18 21 26 27 26 19z m-536 -25 c3 -5
-1 -9 -9 -9 -8 0 -12 4 -9 9 3 4 7 8 9 8 2 0 6 -4 9 -8z m347 -15 c-10 -9 -11
-8 -5 6 3 10 9 15 12 12 3 -3 0 -11 -7 -18z m209 -61 l-21 -21 11 29 c17 45
24 53 28 32 2 -10 -6 -28 -18 -40z m744 -139 c23 -22 5 -10 -39 26 -44 36
-105 88 -135 117 -30 28 -13 16 39 -27 52 -43 113 -95 135 -116z m-1285 151
c-8 -14 -14 -18 -17 -10 -4 13 17 46 25 38 3 -2 -1 -15 -8 -28z m-89 -2 c0 -2
-8 -10 -17 -17 -16 -13 -17 -12 -4 4 13 16 21 21 21 13z m236 -34 c-14 -14
-16 -14 -16 -1 0 20 23 44 29 28 2 -6 -4 -18 -13 -27z m-196 8 c0 -5 -5 -10
-11 -10 -5 0 -7 5 -4 10 3 6 8 10 11 10 2 0 4 -4 4 -10z m530 -13 c0 -1 -28
-29 -62 -62 -56 -53 -58 -54 -18 -10 52 57 80 82 80 72z m-490 -25 c0 -5 -12
-19 -26 -33 l-27 -24 17 33 c15 29 36 43 36 24z m563 -11 c3 -13 -4 -28 -20
-43 l-25 -23 8 30 c6 26 21 55 29 55 1 0 5 -9 8 -19z m-673 -15 c0 -2 -8 -10
-17 -17 -16 -13 -17 -12 -4 4 13 16 21 21 21 13z m246 -34 c-14 -14 -16 -14
-16 -1 0 20 23 44 29 28 2 -6 -4 -18 -13 -27z m367 -6 c4 -9 1 -13 -7 -10 -6
2 -49 -34 -94 -81 -45 -47 -82 -82 -82 -78 0 5 171 183 176 183 1 0 4 -7 7
-14z m437 -8 c23 -16 30 -30 30 -54 0 -34 9 -43 189 -194 232 -193 228 -190
219 -190 -4 0 -42 30 -86 68 -43 37 -121 102 -173 144 -52 42 -121 102 -154
132 -55 50 -61 53 -77 39 -17 -15 -18 -14 -18 12 0 24 23 65 37 65 2 0 17 -10
33 -22z m-976 -33 c-9 -14 -19 -24 -21 -21 -7 7 16 46 28 46 5 0 2 -11 -7 -25z
m586 -14 c0 -10 -9 -29 -21 -42 l-20 -24 6 30 c6 27 22 55 31 55 2 0 4 -9 4
-19z m-750 -4 c0 -2 -10 -12 -22 -23 l-23 -19 19 23 c18 21 26 27 26 19z m113
-12 c-3 -9 -8 -14 -10 -11 -3 3 -2 9 2 15 9 16 15 13 8 -4z m217 2 c0 -8 -9
-22 -20 -32 -20 -18 -20 -18 -9 13 11 32 29 43 29 19z m164 -42 c-9 -14 -18
-25 -21 -25 -5 0 5 18 20 38 17 22 18 13 1 -13z m196 12 c0 -1 -33 -34 -72
-72 l-73 -70 70 73 c64 67 75 77 75 69z m-552 -36 c-7 -12 -16 -21 -21 -21 -8
0 -2 14 16 38 16 20 20 6 5 -17z m1032 -70 c0 -25 -4 -41 -8 -36 -4 6 -20 21
-35 34 l-27 25 -32 -30 c-18 -16 -25 -20 -15 -8 9 11 17 33 17 49 0 16 7 36
16 46 16 17 18 17 50 -8 30 -22 34 -31 34 -72z m-260 75 c0 -2 -8 -10 -17 -17
-16 -13 -17 -12 -4 4 13 16 21 21 21 13z m-820 -35 c0 -5 -7 -12 -16 -15 -14
-5 -15 -4 -4 9 14 17 20 19 20 6z m220 -1 c0 -5 -13 -24 -30 -42 l-29 -33 20
43 c20 39 39 55 39 32z m425 -13 c0 -12 -10 -34 -23 -47 l-23 -25 7 30 c14 60
40 88 39 42z m-260 -45 l-39 -37 35 41 c19 22 36 39 39 37 2 -2 -13 -20 -35
-41z m-425 24 c0 -2 -8 -10 -17 -17 -16 -13 -17 -12 -4 4 13 16 21 21 21 13z
m59 -37 c-12 -17 -23 -28 -26 -26 -8 9 28 68 38 62 5 -4 0 -19 -12 -36z m-99
-2 c0 -2 -10 -12 -22 -23 l-23 -19 19 23 c18 21 26 27 26 19z m634 -9 c-7 -12
-49 -57 -214 -228 -34 -36 -54 -53 -43 -39 20 28 255 279 261 279 2 0 0 -6 -4
-12z m-574 -18 c0 -13 -5 -18 -15 -14 -16 7 -19 17 -8 27 12 13 23 7 23 -13z
m458 0 c-7 -10 -14 -17 -17 -15 -4 4 18 35 25 35 2 0 -1 -9 -8 -20z m-245 -7
c-5 -22 -31 -58 -37 -52 -7 7 22 69 33 69 5 0 7 -8 4 -17z m421 -74 c-9 -10
-21 -19 -25 -19 -9 0 9 59 25 79 9 12 12 9 14 -13 2 -16 -4 -36 -14 -47z m56
56 c-7 -8 -17 -15 -23 -15 -6 0 -2 7 9 15 25 19 30 19 14 0z m-800 1 c0 -2 -8
-10 -17 -17 -16 -13 -17 -12 -4 4 13 16 21 21 21 13z m65 -4 c-5 -4 -41 -40
-78 -79 -38 -40 -67 -69 -65 -64 7 17 133 151 143 151 7 0 7 -3 0 -8z m466 -9
c-5 -10 -29 -36 -52 -58 -42 -39 -42 -39 7 17 53 61 60 68 45 41z m-391 -5
c-1 -7 -12 -26 -26 -43 l-25 -30 12 30 c13 31 29 55 35 55 2 0 4 -6 4 -12z
m320 -21 c0 -2 -12 -14 -27 -28 l-28 -24 24 28 c23 25 31 32 31 24z m193 -64
c-27 -26 -88 -90 -136 -142 -49 -51 -90 -92 -92 -90 -2 2 58 68 132 147 75 78
138 140 140 138 3 -2 -17 -26 -44 -53z m-727 18 c-18 -18 -25 -34 -21 -43 6
-10 5 -11 -5 -1 -12 11 -9 18 15 43 16 16 31 30 34 30 2 0 -8 -13 -23 -29z
m151 10 c0 -10 -6 -17 -13 -14 -7 2 -19 -6 -28 -19 -9 -12 -16 -18 -16 -13 0
8 48 62 57 64 1 1 1 -8 0 -18z m223 -19 c0 -10 -13 -33 -30 -52 -30 -35 -30
-35 -15 -5 8 17 15 35 15 41 0 9 20 34 27 34 2 0 3 -8 3 -18z m-202 -63 c-30
-40 -42 -37 -17 6 12 19 25 32 30 29 5 -3 -1 -18 -13 -35z m282 37 c0 -2 -8
-10 -17 -17 -16 -13 -17 -12 -4 4 13 16 21 21 21 13z m364 -23 c-7 -26 -6 -27
12 -13 10 8 3 -3 -15 -23 -54 -57 -58 -47 -18 41 15 31 29 28 21 -5z m266 -17
c0 -2 -8 -10 -17 -17 -16 -13 -17 -12 -4 4 13 16 21 21 21 13z m-1030 -9 c0
-2 -10 -12 -22 -23 l-23 -19 19 23 c18 21 26 27 26 19z m70 -4 c0 -5 -17 -21
-38 -37 l-37 -29 34 36 c36 39 41 42 41 30z m236 -35 c5 -7 3 -8 -6 -3 -10 6
-12 4 -8 -7 4 -10 -10 -31 -40 -59 -26 -24 -37 -33 -25 -19 11 14 24 36 28 50
13 45 36 62 51 38z m114 8 c0 -2 -8 -10 -17 -17 -16 -13 -17 -12 -4 4 13 16
21 21 21 13z m211 -63 c-34 -38 -102 -108 -153 -158 -50 -49 -72 -67 -47 -40
55 63 251 265 256 265 3 0 -23 -30 -56 -67z m-401 54 c0 -2 -10 -12 -22 -23
l-23 -19 19 23 c18 21 26 27 26 19z m-321 -54 c-18 -20 -40 -43 -46 -51 -7 -7
-13 -10 -13 -6 0 9 81 94 89 94 3 0 -11 -17 -30 -37z m161 -27 l-31 -31 28 50
c20 37 29 45 31 31 3 -11 -9 -31 -28 -50z m678 9 c-3 -14 -1 -25 3 -25 5 0 9
4 9 9 0 5 8 12 18 16 9 3 -2 -12 -25 -34 -23 -23 -44 -41 -46 -41 -10 0 7 67
21 83 21 23 25 22 20 -8z m312 2 c0 -1 -24 -25 -52 -52 l-53 -50 50 53 c46 48
55 57 55 49z m-1029 -20 c-6 -8 -7 -18 -3 -22 4 -5 1 -5 -6 -1 -10 6 -10 11
-1 22 6 8 14 14 16 14 3 0 0 -6 -6 -13z m869 0 c0 -2 -17 -19 -37 -38 l-38
-34 34 38 c33 34 41 42 41 34z m-480 -11 c0 -2 -8 -10 -17 -17 -16 -13 -17
-12 -4 4 13 16 21 21 21 13z m-420 -10 c0 -2 -8 -10 -17 -17 -16 -13 -17 -12
-4 4 13 16 21 21 21 13z m265 -17 c-5 -15 -4 -19 4 -15 21 13 11 0 -30 -39
-39 -38 -40 -39 -26 -10 8 17 21 42 28 58 15 32 33 37 24 6z m324 -97 c-52
-53 -126 -128 -163 -167 -38 -38 -60 -58 -49 -43 31 41 297 316 302 312 3 -3
-38 -48 -90 -102z m-689 85 c0 -2 -19 -21 -42 -42 l-43 -40 40 43 c36 39 45
47 45 39z m181 -11 c18 11 8 -3 -27 -37 l-35 -34 11 30 c15 38 33 61 38 46 2
-6 8 -9 13 -5z m-241 -19 c0 -2 -10 -12 -22 -23 l-23 -19 19 23 c18 21 26 27
26 19z m980 0 c0 -2 -12 -14 -27 -28 l-28 -24 24 28 c23 25 31 32 31 24z
m-880 -10 c0 -2 -10 -12 -22 -23 l-23 -19 19 23 c18 21 26 27 26 19z m400 0
c0 -2 -10 -12 -22 -23 l-23 -19 19 23 c18 21 26 27 26 19z m569 -45 c-24 -26
-46 -47 -48 -45 -5 4 80 93 87 93 3 0 -15 -22 -39 -48z m191 45 c0 -2 -12 -14
-27 -28 l-28 -24 24 28 c23 25 31 32 31 24z m-1094 -36 c0 -12 -5 -17 -14 -14
-7 3 -30 -12 -50 -34 -143 -152 -204 -215 -196 -201 13 22 245 268 253 268 4
0 7 -8 7 -19z m700 -70 l-26 -26 6 35 c4 19 14 46 23 60 l16 25 3 -34 c3 -26
-3 -40 -22 -60z m-506 56 c0 -2 -15 -16 -32 -33 -27 -24 -29 -25 -13 -4 24 30
45 47 45 37z m35 -27 c-5 -16 -3 -19 12 -13 14 5 13 2 -4 -13 -13 -10 -30 -28
-38 -39 -15 -19 -15 -19 -9 10 7 31 30 75 40 75 3 0 3 -9 -1 -20z m796 2 c-5
-9 -19 -26 -32 -37 -17 -15 -15 -10 7 17 32 41 40 48 25 20z m-951 5 c0 -2
-10 -12 -22 -23 l-23 -19 19 23 c18 21 26 27 26 19z m-47 -31 c-6 -29 -67 -91
-82 -82 -11 7 -4 36 10 36 4 0 6 -8 2 -17 -6 -16 -4 -16 15 1 12 11 22 24 22
30 0 11 28 56 34 56 2 0 1 -11 -1 -24z m620 0 c-13 -23 -301 -326 -310 -326
-10 0 44 61 175 196 75 78 138 143 140 143 2 1 -1 -5 -5 -13z m-843 1 c0 -2
-17 -19 -37 -38 l-38 -34 34 38 c33 34 41 42 41 34z m20 -22 c-7 -8 -17 -15
-22 -15 -6 0 -5 7 2 15 7 8 17 15 22 15 6 0 5 -7 -2 -15z m290 -8 c0 -2 -17
-19 -37 -38 l-38 -34 34 38 c33 34 41 42 41 34z m760 -104 c-120 -122 -104
-106 -190 -188 -40 -38 -65 -59 -56 -45 9 13 16 33 16 43 0 22 29 87 39 87 4
0 5 -17 3 -37 -4 -38 -3 -38 135 100 76 75 140 137 143 137 2 0 -38 -44 -90
-97z m-80 74 c0 -2 -10 -12 -22 -23 l-23 -19 19 23 c18 21 26 27 26 19z m-620
-10 c0 -2 -15 -16 -32 -33 l-33 -29 29 33 c28 30 36 37 36 29z m551 -41 c10 9
19 15 19 12 0 -6 -76 -88 -81 -88 -11 0 5 77 20 100 l16 24 3 -33 c3 -32 4
-32 23 -15z m-862 -43 c-147 -154 -172 -178 -146 -142 15 19 39 47 54 61 16
14 55 55 88 91 32 36 61 64 64 62 2 -3 -25 -35 -60 -72z m336 40 c-5 -23 -4
-25 9 -14 34 29 13 -1 -36 -52 -29 -29 -45 -44 -36 -33 9 12 20 35 24 51 6 27
33 74 43 75 2 0 0 -12 -4 -27z m156 4 c-10 -9 -11 -8 -5 6 3 10 9 15 12 12 3
-3 0 -11 -7 -18z m-364 -22 c-3 -24 -67 -107 -67 -87 0 6 5 14 11 18 6 3 19
26 29 50 21 49 32 57 27 19z m27 0 c-4 -8 -11 -15 -16 -15 -6 0 -5 6 2 15 7 8
14 15 16 15 2 0 1 -7 -2 -15z m306 -8 c0 -1 -24 -25 -52 -52 l-53 -50 50 53
c46 48 55 57 55 49z m710 -1 c0 -2 -8 -10 -17 -17 -16 -13 -17 -12 -4 4 13 16
21 21 21 13z m-1116 -60 c-3 -9 -9 -14 -14 -11 -4 2 -17 -8 -30 -23 -36 -42
-202 -211 -198 -202 5 14 240 261 245 257 2 -2 1 -12 -3 -21z m613 -73 c-212
-221 -261 -270 -216 -213 24 30 64 75 89 100 25 25 80 83 124 128 43 45 82 82
87 82 5 0 -33 -44 -84 -97z m413 44 c0 -1 -62 -63 -137 -137 l-138 -135 135
138 c125 127 140 142 140 134z m-774 -29 c-4 -13 -9 -32 -11 -43 -3 -11 -35
-49 -72 -85 -40 -38 -48 -44 -20 -14 28 30 52 66 58 90 10 35 34 74 47 74 2 0
1 -10 -2 -22z m-213 -5 c-5 -12 -2 -15 10 -10 9 3 17 5 17 4 0 -2 -23 -25 -52
-52 -28 -28 -42 -37 -30 -21 12 16 22 35 22 42 0 17 22 54 32 54 4 0 4 -8 1
-17z m241 -8 c-9 -14 -21 -25 -27 -25 -6 0 0 11 13 25 13 14 25 25 27 25 2 0
-4 -11 -13 -25z m51 -73 l-69 -67 64 70 c36 39 67 69 70 67 2 -1 -27 -33 -65
-70z m-195 35 c0 -1 -24 -25 -52 -52 l-53 -50 50 53 c46 48 55 57 55 49z
m-170 -14 c0 -5 -62 -71 -137 -148 -74 -77 -129 -130 -122 -119 12 18 249 271
257 273 1 1 2 -2 2 -6z m691 -50 c-11 -16 -93 -102 -181 -193 -102 -104 -144
-143 -115 -105 25 33 51 65 57 70 6 6 66 65 132 132 67 67 122 122 124 122 2
1 -6 -11 -17 -26z m333 -75 c-56 -57 -129 -132 -163 -167 -33 -35 -61 -60 -61
-56 0 9 311 325 319 325 3 0 -40 -46 -95 -102z m-990 35 c-7 -25 -6 -27 9 -14
36 29 14 3 -40 -49 -31 -30 -45 -40 -30 -22 15 19 27 40 27 48 0 14 28 64 36
64 3 0 1 -12 -2 -27z m212 -14 c-5 -27 -4 -30 9 -19 28 23 15 4 -20 -30 l-35
-34 6 34 c6 35 29 80 40 80 4 0 4 -14 0 -31z m194 28 c0 -2 -17 -19 -37 -38
l-38 -34 34 38 c33 34 41 42 41 34z m339 -67 c-2 -41 -7 -54 -32 -77 -23 -21
-27 -23 -20 -8 5 11 10 36 12 55 1 31 24 80 36 80 3 0 5 -22 4 -50z m-999 6
c0 -2 -8 -10 -17 -17 -16 -13 -17 -12 -4 4 13 16 21 21 21 13z m23 -181 c-178
-182 -163 -156 26 43 69 74 127 130 128 125 2 -4 -68 -80 -154 -168z m1385
165 c-9 -6 -31 -27 -47 -47 -17 -21 -31 -34 -31 -30 0 12 72 87 84 87 6 0 3
-5 -6 -10z m-828 -3 c0 -2 -10 -12 -22 -23 l-23 -19 19 23 c18 21 26 27 26 19z
m-370 -96 c-9 -17 -8 -20 5 -15 8 4 15 11 15 17 0 6 3 7 7 3 4 -3 -17 -31 -47
-61 -39 -40 -57 -52 -66 -44 -11 9 -117 -92 -284 -271 l-32 -35 31 42 c18 23
92 104 165 180 114 117 133 133 129 108 -6 -30 -6 -30 15 -11 11 10 24 32 27
50 8 38 37 85 42 69 3 -7 -1 -21 -7 -32z m190 36 c0 -1 -28 -29 -62 -62 l-63
-60 60 63 c55 58 65 67 65 59z m-462 -27 c-7 -11 -17 -20 -22 -20 -5 0 -1 9 9
20 10 11 20 20 22 20 2 0 -2 -9 -9 -20z m891 -68 c-35 -37 -71 -74 -79 -82 -8
-8 -59 -61 -113 -117 -93 -97 -122 -122 -74 -63 35 43 52 70 52 83 1 7 6 11
13 10 7 -2 11 2 9 8 -1 6 4 14 12 17 9 3 11 0 6 -9 -5 -8 1 -6 13 5 12 10 19
23 15 29 -3 5 -2 7 4 4 13 -8 66 47 56 57 -5 4 -1 6 7 4 8 -2 14 3 12 10 -1 8
2 11 7 8 5 -4 34 22 63 57 29 35 55 59 57 55 1 -5 -25 -39 -60 -76z m-392 66
c-2 -7 -8 -24 -12 -38 -7 -24 -7 -24 11 -9 54 46 40 24 -31 -49 -44 -46 -81
-87 -83 -92 -2 -6 -9 -10 -15 -10 -6 0 7 19 29 43 25 25 46 60 53 87 7 25 20
53 29 63 18 20 26 22 19 5z m182 -15 c-48 -62 -626 -645 -606 -612 9 14 19 42
22 62 4 20 16 43 26 53 22 20 22 20 10 -24 l-10 -32 28 19 c15 11 77 72 137
136 85 90 111 125 120 158 19 73 60 122 44 52 -4 -19 -5 -35 -1 -35 4 0 59 54
121 120 104 110 144 148 109 103z m481 -208 c-123 -123 -226 -222 -229 -220
-2 3 3 13 11 22 9 10 19 43 23 73 4 30 16 66 27 80 l20 25 -3 -58 c-2 -31 -2
-57 1 -57 3 0 86 81 185 180 98 99 181 180 184 180 3 0 -95 -101 -219 -225z
m-125 133 l-7 -53 21 19 c11 11 21 17 21 13 0 -8 -80 -90 -84 -86 -8 9 14 113
29 135 23 36 28 30 20 -28z m-805 -74 c-16 -40 -13 -40 28 -4 20 19 10 6 -23
-29 -33 -36 -66 -71 -72 -78 -7 -8 -13 -10 -13 -5 0 5 7 15 14 22 8 6 20 28
27 48 16 50 28 72 39 72 6 0 6 -10 0 -26z m723 11 c-3 -9 -8 -14 -10 -11 -3 3
-2 9 2 15 9 16 15 13 8 -4z m-400 -147 c-61 -62 -132 -135 -157 -161 -25 -27
-46 -45 -46 -40 0 22 30 116 40 129 21 24 29 15 18 -22 -5 -20 -8 -38 -6 -40
2 -2 60 53 128 121 69 69 127 125 129 125 3 0 -45 -51 -106 -112z m287 9 c-46
-45 -77 -73 -69 -62 8 11 38 43 67 73 30 30 50 58 46 64 -4 7 -3 8 4 4 8 -4
12 0 12 10 0 14 3 15 12 6 10 -10 -5 -30 -72 -95z m-950 79 c0 -2 -8 -10 -17
-17 -16 -13 -17 -12 -4 4 13 16 21 21 21 13z m263 -18 c-8 -13 -9 -18 -12 -38
0 -5 -6 -9 -12 -7 -5 1 -80 -70 -166 -158 -85 -88 -141 -142 -123 -120 38 46
311 335 317 335 2 0 1 -6 -4 -12z m162 -25 c-16 -16 -25 -21 -20 -13 14 25 38
50 43 45 3 -2 -8 -17 -23 -32z m-395 -36 c0 -2 -12 -14 -27 -28 l-28 -24 24
28 c23 25 31 32 31 24z m260 -57 c-14 -26 -8 -36 12 -18 62 57 60 49 -6 -19
-58 -60 -84 -80 -99 -77 -16 3 -58 -35 -180 -159 -87 -89 -132 -130 -98 -92
95 110 303 322 291 298 -7 -15 -7 -24 1 -28 13 -9 36 21 45 60 8 36 37 82 42
67 2 -6 -2 -21 -8 -32z m743 -31 c-6 -6 -9 -19 -6 -28 4 -14 3 -14 -6 -1 -11
16 -21 10 -25 -13 -1 -8 -87 -102 -190 -208 -104 -107 -174 -175 -156 -152 19
25 29 46 24 54 -5 8 -2 11 7 7 10 -4 15 1 16 14 1 11 10 31 19 46 15 23 18 24
29 9 11 -15 14 -15 31 4 10 12 18 24 17 28 0 3 3 5 8 3 6 -1 9 6 7 15 -2 12 4
18 17 18 12 0 20 6 19 16 -1 9 6 16 15 15 10 -1 15 6 14 19 -1 11 0 15 3 8 4
-8 11 -7 24 4 10 9 16 21 13 25 -5 10 119 139 126 132 3 -3 0 -9 -6 -15z m232
-294 c-159 -157 -290 -285 -293 -285 -3 0 4 10 16 23 15 16 23 41 27 87 4 40
15 78 28 100 27 43 32 27 18 -56 -5 -32 -8 -60 -7 -61 1 -1 112 108 246 242
135 134 246 242 249 240 2 -3 -126 -133 -284 -290z m-485 208 c-41 -43 -84
-89 -97 -103 -16 -17 -22 -19 -17 -7 3 9 10 17 15 17 13 0 70 91 63 101 -3 5
2 6 10 3 12 -5 16 0 16 17 0 19 2 21 10 9 8 -13 14 -11 37 13 59 58 33 23 -37
-50z m-54 60 c-89 -88 -654 -670 -664 -684 -7 -10 -18 -19 -23 -19 -6 0 0 13
13 28 13 16 30 54 37 84 6 31 21 64 32 74 20 18 20 18 16 -6 -3 -14 -8 -38
-12 -55 -6 -25 20 -3 139 119 142 146 166 179 166 238 0 9 12 30 26 45 21 23
24 24 20 8 -23 -98 -26 -99 111 41 70 72 132 132 137 133 5 0 6 -2 2 -6z
m-736 -48 c-7 -9 -15 -13 -19 -10 -3 3 1 10 9 15 21 14 24 12 10 -5z m-130
-18 c0 -2 -12 -14 -27 -28 l-28 -24 24 28 c23 25 31 32 31 24z m80 -30 c0 -2
-17 -19 -37 -38 l-38 -34 34 38 c33 34 41 42 41 34z m489 -41 c-2 -3 -76 -79
-165 -169 -134 -137 -165 -164 -185 -161 -20 3 -48 -22 -169 -149 -138 -146
-225 -226 -150 -139 19 22 46 55 60 73 14 18 32 39 41 47 43 39 110 106 172
170 72 76 85 85 67 51 -6 -11 -10 -28 -8 -37 6 -31 44 24 57 82 7 30 21 62 33
72 20 19 21 19 14 -3 -26 -83 -19 -81 106 45 68 67 125 122 127 122 2 0 2 -2
0 -4z m-278 -82 c-4 -16 -13 -29 -19 -29 -6 0 -80 -72 -164 -160 -83 -88 -156
-162 -162 -164 -16 -6 40 57 198 222 77 82 143 153 145 158 7 22 10 1 2 -27z
m849 17 c0 -5 -7 -12 -16 -15 -14 -5 -15 -4 -4 9 14 17 20 19 20 6z m-1081
-38 c-65 -72 -99 -106 -99 -99 0 8 110 126 118 126 3 0 -5 -12 -19 -27z m463
-290 c-326 -334 -449 -456 -394 -390 18 21 32 48 32 61 0 31 20 87 38 109 22
25 24 16 7 -38 -8 -27 -12 -51 -10 -53 2 -3 72 64 154 148 149 152 150 154
166 221 9 37 25 75 36 85 22 20 24 11 10 -48 -5 -21 -6 -38 -1 -38 4 0 63 58
131 130 68 71 128 129 133 130 4 0 -131 -143 -302 -317z m498 167 c-50 -50
-90 -86 -88 -81 5 16 171 182 176 176 3 -2 -37 -45 -88 -95z m-1080 -5 c-7 -8
-17 -15 -23 -15 -6 0 -2 7 9 15 25 19 30 19 14 0z m-30 -28 c0 -1 -26 -27 -57
-57 l-57 -55 49 56 c43 49 65 68 65 56z m-10 -144 c-52 -53 -101 -103 -109
-112 -8 -9 -12 -10 -10 -4 4 14 199 213 208 213 3 0 -37 -44 -89 -97z m879 83
c-2 -3 -62 -66 -133 -140 -70 -75 -133 -136 -139 -136 -7 0 51 63 128 140 77
77 142 140 144 140 2 0 2 -2 0 -4z m109 -33 c-79 -88 -188 -196 -176 -175 7
12 16 22 21 22 12 0 47 63 40 73 -3 6 -1 7 5 3 6 -4 13 7 17 26 8 35 31 68 48
68 6 0 3 -8 -5 -17 -27 -32 -34 -50 -11 -30 11 9 22 15 25 12 2 -3 17 9 33 25
41 43 44 37 3 -7z m182 -40 c0 -11 -406 -423 -416 -423 -4 0 2 9 13 20 36 33
73 86 73 103 0 9 9 22 20 29 11 7 20 17 20 22 0 4 -7 3 -15 -4 -24 -20 -17 5
7 26 19 17 21 17 15 2 -4 -10 -2 -18 4 -18 6 0 7 -4 4 -10 -3 -5 -2 -10 2 -10
16 0 75 68 69 79 -4 6 -1 9 7 5 8 -3 48 32 103 90 93 100 94 100 94 89z
m-1181 -159 c-46 -47 -104 -107 -128 -132 -24 -25 -42 -40 -40 -34 5 13 239
252 247 252 3 0 -32 -39 -79 -86z m617 19 c-8 -34 -11 -64 -9 -67 5 -5 10 0
-251 -264 -193 -197 -260 -260 -188 -178 20 23 31 49 36 82 6 50 46 129 53
107 2 -6 -3 -38 -11 -70 l-15 -58 163 169 163 169 13 63 c10 54 45 123 55 112
2 -2 -2 -31 -9 -65z m-330 25 c-25 -61 -26 -63 -22 -36 1 15 -1 25 -5 22 -5
-3 -9 -11 -9 -17 -1 -7 -80 -93 -177 -192 -97 -99 -159 -157 -137 -130 21 28
47 59 57 70 10 11 25 32 33 48 8 15 20 27 27 27 18 0 138 125 129 135 -4 5 -2
5 4 2 6 -4 31 17 55 48 50 63 64 70 45 23z m536 -95 c-24 -34 -82 -90 -82 -79
0 7 90 106 97 106 2 0 -5 -12 -15 -27z m107 -301 c-118 -119 -218 -219 -222
-221 -5 -2 14 25 41 59 34 42 53 76 57 103 7 38 39 87 50 75 8 -7 -5 -38 -16
-38 -5 0 -9 -5 -9 -11 0 -5 5 -7 10 -4 6 3 10 0 10 -8 0 -8 35 21 78 65 42 43
76 84 74 89 -1 6 2 8 7 5 6 -4 36 20 68 53 32 32 60 57 62 55 3 -2 -92 -102
-210 -222z m-420 -19 c-412 -416 -439 -443 -447 -443 -4 0 0 6 8 13 30 24 40
46 60 121 19 76 60 151 60 110 0 -11 -7 -44 -15 -74 -8 -30 -13 -55 -11 -57 4
-5 301 300 318 327 9 14 22 52 29 85 12 60 43 125 59 125 9 0 6 -16 -15 -92
-8 -25 -11 -48 -9 -51 2 -2 43 36 91 84 48 49 89 87 92 84 2 -3 -96 -107 -220
-232z m-605 125 c-54 -57 -102 -105 -108 -107 -6 -2 0 8 14 22 14 14 61 61
104 106 44 45 82 81 84 81 3 0 -40 -46 -94 -102z m1163 89 c0 -8 -6 -14 -14
-14 -9 0 -10 4 -2 14 6 7 12 13 14 13 1 0 2 -6 2 -13z m-850 -44 c-14 -49 -13
-48 -34 -32 -13 11 -15 11 -9 1 6 -9 -31 -53 -116 -140 -69 -70 -146 -151
-173 -179 -26 -29 -52 -53 -58 -53 -5 0 9 20 32 45 24 26 39 50 35 57 -5 8 -2
9 10 5 14 -5 17 -3 13 8 -4 8 -1 18 6 22 7 5 17 17 23 28 6 11 20 25 30 30 10
6 71 63 134 128 63 64 116 117 117 117 0 0 -4 -17 -10 -37z m163 -524 c-225
-228 -409 -411 -410 -407 0 4 13 21 28 38 20 21 35 57 51 120 17 62 31 96 48
112 25 23 25 23 19 1 -4 -12 -9 -30 -11 -40 -2 -10 -9 -34 -14 -53 -6 -19 -11
-40 -11 -46 0 -12 328 315 341 339 4 7 15 48 25 92 15 67 48 134 61 122 1 -2
-4 -37 -11 -78 -8 -40 -14 -75 -12 -76 1 -1 69 65 151 147 82 82 150 148 152
146 2 -1 -181 -189 -407 -417z m762 364 c-3 -16 -7 -22 -10 -15 -4 13 4 42 11
42 2 0 2 -12 -1 -27z m-1402 -58 c-29 -30 -56 -52 -59 -49 -6 6 95 104 106
104 4 0 -17 -25 -47 -55z m405 -40 c-7 -22 -17 -40 -22 -41 -8 0 -285 -279
-344 -346 -18 -21 -37 -38 -43 -38 -5 0 7 17 27 38 20 21 37 43 37 49 0 16 56
83 64 75 4 -3 4 1 1 9 -3 9 3 23 16 35 22 19 22 19 15 -1 -5 -16 -3 -15 16 5
13 14 19 19 13 10 -9 -13 -8 -13 7 -1 10 7 15 18 12 23 -8 13 27 50 42 44 7
-3 18 3 26 12 12 15 11 16 -4 3 -10 -7 -18 -10 -18 -5 0 9 162 175 167 171 1
-2 -4 -21 -12 -42z m864 -92 c-117 -119 -209 -208 -209 -201 0 10 294 308 299
303 2 -3 -38 -49 -90 -102z m-689 -488 c-234 -234 -429 -425 -435 -425 -5 0
-3 6 6 13 26 20 52 66 45 82 -3 9 -2 13 4 10 6 -3 10 1 10 11 0 36 41 152 60
169 11 10 20 14 20 9 0 -10 -21 -92 -39 -153 l-11 -35 36 35 c20 19 102 101
183 182 l146 148 24 102 c15 67 32 112 47 130 30 36 31 22 5 -88 -11 -44 -18
-81 -17 -82 1 -2 74 69 161 157 88 88 164 160 170 160 5 0 -181 -191 -415
-425z m-470 401 c0 -2 -44 -49 -97 -103 -120 -122 -120 -119 -1 10 85 91 98
103 98 93z m947 -67 l-2 -61 -77 -81 c-43 -45 -78 -77 -78 -72 0 6 18 28 40
50 21 22 39 48 40 57 0 9 4 19 9 23 6 3 13 26 17 50 5 38 35 95 50 95 2 0 3
-27 1 -61z m-730 -41 c-6 -27 -16 -47 -22 -45 -6 1 -98 -87 -204 -196 -107
-108 -197 -195 -200 -191 -3 3 9 19 28 36 19 17 40 47 47 66 6 20 17 38 23 40
7 2 9 -3 4 -15 -3 -10 -3 -15 1 -11 4 3 9 12 10 20 5 26 34 86 46 93 20 13 23
-4 4 -22 -11 -10 -15 -15 -10 -10 16 11 28 8 20 -5 -5 -9 -2 -8 10 1 9 8 15
20 12 28 -6 14 30 53 48 53 6 0 4 -5 -4 -10 -9 -6 -10 -10 -3 -10 7 0 17 10
24 21 7 15 8 19 0 15 -7 -5 -9 -1 -5 8 7 18 24 22 24 6 0 -5 25 18 56 51 31
33 53 63 51 66 -3 3 6 18 20 34 15 16 27 28 29 27 1 -2 -3 -24 -9 -50z m994
19 c-10 -9 -11 -8 -5 6 3 10 9 15 12 12 3 -3 0 -11 -7 -18z m1426 -49 c-3 -8
-6 -5 -6 6 -1 11 2 17 5 13 3 -3 4 -12 1 -19z m-2517 -43 c-24 -25 -46 -42
-49 -40 -3 3 15 25 39 50 24 25 46 42 49 40 3 -3 -15 -25 -39 -50z m848 -225
c-231 -230 -278 -274 -249 -237 8 10 32 37 53 60 21 23 38 50 38 61 0 10 5 16
13 13 9 -3 13 12 14 56 1 50 6 65 27 86 l26 26 0 -32 c0 -22 -6 -36 -20 -43
-11 -6 -20 -15 -20 -21 0 -6 7 -3 16 5 22 23 27 20 19 -11 -6 -27 -5 -27 36
12 23 22 95 92 158 155 64 63 117 112 119 108 2 -4 -102 -111 -230 -238z m162
236 c0 -2 -8 -10 -17 -17 -16 -13 -17 -12 -4 4 13 16 21 21 21 13z m1570 -53
c0 -27 -3 -28 -35 -7 -15 10 -25 26 -25 41 0 24 0 24 30 6 19 -11 30 -25 30
-40z m-2317 -535 c-243 -243 -445 -440 -448 -436 -3 3 7 18 23 34 21 22 34 52
51 124 25 102 40 139 65 159 14 12 15 10 9 -20 -3 -19 -16 -69 -29 -112 l-22
-79 26 24 c49 45 362 356 362 361 0 2 12 55 26 118 19 84 31 119 50 137 13 14
24 22 24 19 0 -2 -9 -49 -20 -102 -11 -53 -20 -101 -20 -106 0 -5 75 65 167
156 92 91 170 165 173 165 3 0 -194 -199 -437 -442z m-251 342 c-9 -34 -19
-55 -22 -48 -6 17 -31 22 -25 5 3 -6 -87 -104 -200 -217 -113 -113 -205 -200
-205 -194 0 5 16 26 36 45 19 18 42 49 50 68 8 19 17 31 21 28 3 -4 0 -15 -8
-24 -13 -16 -12 -17 4 -4 9 7 17 22 17 33 0 11 7 26 15 34 8 9 15 24 15 33 0
30 25 45 50 31 18 -9 25 -8 41 6 19 17 16 39 -4 28 -8 -4 -7 -2 1 7 10 11 15
11 20 2 6 -9 28 8 70 51 60 63 87 103 37 56 -14 -13 -25 -19 -25 -15 0 8 119
135 126 135 1 0 -5 -27 -14 -60z m1068 -20 c0 -13 -5 -18 -15 -14 -8 3 -17 0
-20 -8 -3 -8 -20 -25 -38 -38 -23 -17 -19 -9 18 29 27 28 51 51 52 51 2 0 3
-9 3 -20z m-1204 -91 c-34 -27 -44 -24 -16 6 12 13 27 22 32 19 5 -3 -2 -14
-16 -25z m1211 -1 c-3 -8 -6 -5 -6 6 -1 11 2 17 5 13 3 -3 4 -12 1 -19z m-308
-284 c-140 -140 -258 -254 -264 -254 -5 0 10 19 33 43 29 30 42 52 43 72 1 30
1 30 10 5 8 -23 8 -22 6 7 -2 18 0 30 5 27 4 -3 11 8 14 25 4 17 12 31 19 31
7 0 21 12 30 28 l18 27 -27 -24 -26 -25 6 35 c6 36 33 80 52 87 8 2 10 -12 6
-53 -5 -46 -3 -56 7 -50 8 3 6 0 -3 -8 -10 -8 -18 -20 -18 -28 0 -8 12 -2 29
16 16 17 26 34 23 39 -3 5 -1 6 5 3 5 -4 70 55 144 131 74 75 136 133 138 128
2 -4 -111 -123 -250 -262z m163 249 c-6 -2 -9 -10 -5 -16 3 -7 3 -9 -2 -5 -4
4 -15 2 -24 -4 -10 -8 -9 -4 3 10 11 12 24 22 30 21 6 0 6 -3 -2 -6z m-52 -46
c0 -2 -10 -12 -22 -23 l-23 -19 19 23 c18 21 26 27 26 19z m-957 -89 c-6 -7
-16 -35 -23 -61 -9 -33 -17 -46 -26 -43 -8 3 -14 0 -14 -6 0 -11 -412 -430
-418 -424 -2 2 15 23 37 47 23 24 41 48 41 52 0 5 10 17 23 27 12 10 18 22 14
26 -4 5 -12 2 -17 -6 -6 -8 -10 -10 -10 -4 0 13 25 36 32 29 2 -2 12 17 22 44
9 27 26 57 37 67 18 16 19 16 19 -1 0 -10 -8 -28 -17 -39 -15 -18 -14 -18 8 2
35 31 47 28 18 -5 l-24 -28 27 24 c21 19 25 27 17 38 -7 7 -7 13 -2 13 6 0 15
10 21 23 10 18 11 19 9 3 -1 -10 4 -21 11 -23 7 -3 11 3 10 14 -3 40 2 52 19
46 10 -4 14 -2 10 4 -8 13 97 123 118 123 8 0 15 -5 15 -11 0 -6 -6 -9 -14 -6
-18 7 -42 -18 -26 -28 5 -3 10 1 10 9 0 9 6 13 14 10 21 -8 32 18 13 30 -14 9
-12 14 16 38 35 30 45 35 30 16z m827 -41 c0 -2 -10 -12 -22 -23 l-23 -19 19
23 c18 21 26 27 26 19z m1567 -39 c-3 -8 -6 -5 -6 6 -1 11 2 17 5 13 3 -3 4
-12 1 -19z m-1562 2 c3 -5 1 -10 -4 -10 -6 0 -11 5 -11 10 0 6 2 10 4 10 3 0
8 -4 11 -10z m876 -23 c-6 -8 -7 -18 -3 -22 4 -5 1 -5 -6 -1 -10 6 -10 11 -1
22 6 8 14 14 16 14 3 0 0 -6 -6 -13z m-622 -69 c0 -27 -2 -29 -8 -13 -5 11 -6
26 -4 33 8 21 13 13 12 -20z m576 22 c-3 -5 -12 -10 -18 -10 -7 0 -6 4 3 10
19 12 23 12 15 0z m-558 -52 c-3 -8 -6 -5 -6 6 -1 11 2 17 5 13 3 -3 4 -12 1
-19z m-76 -11 c-10 -9 -11 -8 -5 6 3 10 9 15 12 12 3 -3 0 -11 -7 -18z m-1381
-16 c-11 -21 -30 -37 -30 -25 0 8 30 44 37 44 2 0 -1 -9 -7 -19z m1348 -15
c-7 -8 -15 -12 -17 -11 -5 6 10 25 20 25 5 0 4 -6 -3 -14z m79 -23 c-3 -10 -5
-4 -5 12 0 17 2 24 5 18 2 -7 2 -21 0 -30z m513 17 c0 -5 -5 -10 -11 -10 -5 0
-7 5 -4 10 3 6 8 10 11 10 2 0 4 -4 4 -10z m-493 -37 c-3 -10 -5 -4 -5 12 0
17 2 24 5 18 2 -7 2 -21 0 -30z m-134 12 c-3 -9 -8 -14 -10 -11 -3 3 -2 9 2
15 9 16 15 13 8 -4z m-1519 -165 c-87 -88 -163 -160 -168 -160 -5 0 64 74 154
164 91 91 166 163 169 160 3 -2 -67 -76 -155 -164z m456 68 c-5 -13 -14 -42
-20 -65 -12 -47 -27 -57 -27 -18 0 14 4 22 10 18 5 -3 7 -1 3 5 -3 5 0 12 6
15 7 2 10 7 7 11 -3 3 -15 -2 -27 -12 -16 -14 -18 -22 -10 -30 9 -9 9 -12 1
-12 -27 0 -22 23 14 65 42 49 58 57 43 23z m980 13 c0 -5 -7 -12 -16 -15 -14
-5 -15 -4 -4 9 14 17 20 19 20 6z m-183 -127 c-3 -35 -12 -53 -36 -77 -33 -34
-37 -28 -21 37 7 31 42 82 58 85 1 1 1 -20 -1 -45z m26 -90 c-7 -19 -10 -18
-16 5 -3 13 -1 18 9 14 7 -2 10 -11 7 -19z m-1043 -8 c0 -2 -8 -10 -17 -17
-16 -13 -17 -12 -4 4 13 16 21 21 21 13z"/>
<path d="M2067 2590 c-16 -17 -24 -30 -19 -30 9 0 33 25 46 48 11 19 4 14 -27
-18z"/>
<path d="M920 1603 l-35 -36 32 23 c18 13 34 29 37 37 7 18 5 17 -34 -24z"/>
<path d="M1636 1233 c-6 -14 -5 -15 5 -6 7 7 10 15 7 18 -3 3 -9 -2 -12 -12z"/>
<path d="M720 1015 c-11 -13 -10 -14 4 -9 9 3 16 10 16 15 0 13 -6 11 -20 -6z"/>
<path d="M569 663 c-13 -15 -12 -15 7 -5 12 6 24 8 28 5 3 -3 6 -1 6 5 0 18
-25 14 -41 -5z"/>
<path d="M663 503 c-9 -24 -29 -44 -37 -36 -3 4 -6 1 -6 -6 0 -6 -12 -23 -27
-37 -14 -13 -24 -27 -20 -30 3 -3 14 3 24 14 10 10 35 37 56 59 24 26 35 43
28 47 -6 4 -14 -1 -18 -11z"/>
<path d="M535 360 c3 -5 8 -10 11 -10 2 0 4 5 4 10 0 6 -5 10 -11 10 -5 0 -7
-4 -4 -10z"/>
<path d="M3025 6010 c16 -16 30 -28 32 -26 5 5 -45 56 -54 56 -4 0 6 -13 22
-30z"/>
<path d="M3180 5885 c0 -12 70 -75 84 -75 6 0 6 3 1 8 -6 4 -27 23 -47 41 -21
19 -38 31 -38 26z"/>
<path d="M3220 5797 c0 -2 14 -16 31 -33 16 -16 28 -22 24 -14 -5 13 -55 56
-55 47z"/>
<path d="M3230 5740 c30 -27 56 -47 59 -44 6 6 -91 93 -104 93 -5 0 15 -22 45
-49z"/>
<path d="M3330 5760 c0 -5 5 -10 10 -10 6 0 10 5 10 10 0 6 -4 10 -10 10 -5 0
-10 -4 -10 -10z"/>
<path d="M3365 5728 c5 -13 45 -42 50 -36 1 2 -11 13 -26 26 -16 13 -27 17
-24 10z"/>
<path d="M3170 5717 c0 -1 29 -31 65 -66 54 -53 65 -61 65 -43 0 12 -6 22 -12
22 -7 0 -33 20 -58 45 -38 37 -60 53 -60 42z"/>
<path d="M3370 5675 c19 -19 36 -35 39 -35 3 0 -10 16 -29 35 -19 19 -36 35
-39 35 -3 0 10 -16 29 -35z"/>
<path d="M3275 5671 c-3 -5 -1 -12 5 -16 5 -3 10 1 10 9 0 18 -6 21 -15 7z"/>
<path d="M3464 5635 c63 -58 73 -58 16 0 -24 25 -49 45 -55 45 -5 0 12 -21 39
-45z"/>
<path d="M3180 5661 c0 -6 4 -11 8 -11 4 0 34 -26 65 -57 37 -36 57 -51 57
-40 0 9 -6 20 -14 24 -8 4 -29 22 -48 38 -56 50 -68 58 -68 46z"/>
<path d="M3369 5637 c36 -39 41 -42 41 -29 0 4 -17 20 -38 36 l-37 29 34 -36z"/>
<path d="M3180 5622 c0 -5 32 -38 70 -72 39 -34 70 -57 70 -51 0 6 -10 19 -22
29 -12 9 -43 37 -70 61 -26 24 -48 39 -48 33z"/>
<path d="M3190 5565 c0 -3 6 -12 13 -18 7 -7 39 -37 70 -67 31 -30 57 -49 57
-42 0 7 -15 27 -32 43 -50 46 -108 91 -108 84z"/>
<path d="M3389 5536 c19 -19 37 -34 39 -31 7 7 -28 45 -53 57 -12 7 -7 -3 14
-26z"/>
<path d="M3509 5547 c26 -28 31 -32 31 -19 0 4 -13 16 -28 26 l-27 19 24 -26z"/>
<path d="M3509 5507 c19 -20 37 -35 39 -33 7 8 -7 24 -41 47 l-32 22 34 -36z"/>
<path d="M3399 5487 c36 -39 41 -42 41 -29 0 4 -17 20 -38 36 l-37 29 34 -36z"/>
<path d="M3606 5489 c3 -8 24 -29 45 -48 22 -18 37 -27 33 -20 -3 8 -24 29
-45 48 -22 18 -37 27 -33 20z"/>
<path d="M3405 5432 c22 -21 42 -37 44 -35 7 5 -62 73 -73 73 -6 0 7 -17 29
-38z"/>
<path d="M3263 5394 c37 -37 67 -70 67 -75 0 -5 4 -9 9 -9 5 0 8 8 6 18 -2 9
-4 22 -4 29 -1 7 -7 10 -14 8 -7 -3 -35 17 -62 45 -27 27 -54 50 -59 50 -6 0
20 -30 57 -66z"/>
<path d="M3644 5403 c28 -29 52 -50 55 -48 2 3 2 6 0 8 -2 1 -27 22 -54 47
l-50 45 49 -52z"/>
<path d="M3530 5405 c18 -19 36 -32 39 -30 6 7 -50 65 -63 65 -5 0 5 -16 24
-35z"/>
<path d="M3304 5411 c21 -23 26 -26 26 -11 0 5 -10 15 -22 21 -23 12 -23 12
-4 -10z"/>
<path d="M3415 5380 c21 -22 41 -37 44 -35 6 7 -60 75 -73 75 -6 0 7 -18 29
-40z"/>
<path d="M3215 5390 c11 -14 46 -49 78 -79 48 -46 57 -51 57 -32 0 11 -6 21
-13 21 -7 0 -29 16 -48 36 -18 20 -47 45 -64 57 l-30 22 20 -25z"/>
<path d="M3539 5357 c19 -20 40 -37 45 -37 11 0 -21 31 -59 60 -11 8 -4 -3 14
-23z"/>
<path d="M3665 5342 c27 -29 53 -52 59 -52 13 0 -22 36 -69 73 -38 29 -38 28
10 -21z"/>
<path d="M3210 5343 c0 -4 32 -38 71 -75 87 -82 88 -111 1 -32 -35 31 -65 54
-68 51 -6 -5 38 -53 71 -77 11 -8 35 -33 54 -55 l34 -40 -6 40 c-4 22 -7 50
-7 63 0 12 -6 22 -12 22 -7 0 -39 25 -70 55 -57 54 -68 62 -68 48z"/>
<path d="M3441 5314 c13 -17 26 -30 28 -27 3 2 -8 16 -24 31 l-28 27 24 -31z"/>
<path d="M3554 5303 c22 -24 42 -40 45 -38 2 3 2 6 0 8 -2 1 -22 18 -44 37
l-40 35 39 -42z"/>
<path d="M3400 5303 c0 -10 75 -83 85 -83 11 0 -10 27 -47 59 -21 18 -38 29
-38 24z"/>
<path d="M3530 5284 c0 -6 18 -27 40 -48 22 -20 40 -33 40 -28 0 4 -18 26 -40
47 -22 21 -40 34 -40 29z"/>
<path d="M3690 5237 c30 -30 56 -54 58 -52 8 8 -15 35 -61 69 l-52 39 55 -56z"/>
<path d="M3710 5260 c0 -5 5 -10 10 -10 6 0 10 5 10 10 0 6 -4 10 -10 10 -5 0
-10 -4 -10 -10z"/>
<path d="M3410 5244 c0 -15 79 -89 86 -81 4 4 5 8 3 10 -2 1 -23 20 -47 42
-23 21 -42 35 -42 29z"/>
<path d="M3705 5182 c33 -34 61 -62 63 -62 9 0 -20 38 -45 59 -15 13 -39 33
-53 45 -14 11 2 -7 35 -42z"/>
<path d="M3220 5221 c0 -5 19 -27 42 -48 68 -61 108 -106 108 -122 0 -16 -10
-9 -90 66 -25 23 -46 38 -48 33 -2 -5 16 -26 39 -47 23 -21 49 -45 58 -53 9
-8 27 -28 40 -45 l24 -30 -7 49 c-3 27 -6 57 -6 67 0 11 -5 19 -11 19 -6 0
-42 27 -80 61 -38 34 -69 56 -69 50z"/>
<path d="M3579 5187 c19 -20 37 -35 39 -33 7 8 -7 24 -41 47 l-32 22 34 -36z"/>
<path d="M3420 5183 c0 -5 20 -29 45 -53 25 -24 45 -38 44 -30 -1 16 -89 98
-89 83z"/>
<path d="M3676 5168 c12 -22 104 -102 104 -91 0 5 -25 31 -57 58 -31 27 -52
42 -47 33z"/>
<path d="M3595 5120 c21 -22 41 -37 44 -35 6 7 -60 75 -73 75 -6 0 7 -18 29
-40z"/>
<path d="M3729 5070 c64 -60 79 -71 64 -47 -10 18 -112 107 -121 107 -4 0 22
-27 57 -60z"/>
<path d="M3430 5117 c0 -3 20 -26 45 -50 25 -25 45 -39 45 -33 0 7 -12 23 -27
37 -39 35 -63 52 -63 46z"/>
<path d="M3605 5060 c21 -22 41 -37 44 -35 6 7 -61 74 -74 75 -5 0 8 -18 30
-40z"/>
<path d="M3240 5077 c0 -9 21 -33 48 -54 26 -21 53 -46 60 -55 7 -9 19 -24 27
-32 8 -8 15 -19 15 -25 0 -6 5 -11 11 -11 19 0 0 54 -24 70 -12 8 -48 39 -79
69 -37 34 -58 48 -58 38z"/>
<path d="M3450 5048 c0 -3 20 -25 45 -51 24 -26 41 -38 37 -28 -6 16 -82 89
-82 79z"/>
<path d="M3619 4997 c25 -26 47 -44 49 -42 7 7 -27 43 -63 68 -23 16 -20 10
14 -26z"/>
<path d="M3240 5012 c0 -11 80 -92 92 -92 3 0 25 -23 47 -51 23 -29 41 -45 41
-38 0 31 -13 59 -29 64 -9 2 -36 24 -61 47 -70 66 -90 82 -90 70z"/>
<path d="M3770 4937 c35 -37 65 -67 66 -67 1 0 0 9 -3 20 -3 11 -18 28 -34 37
-16 10 -29 21 -29 24 0 4 -15 18 -32 30 -21 14 -9 -3 32 -44z"/>
<path d="M3458 4974 c17 -31 92 -97 92 -81 0 7 -23 33 -51 57 -28 24 -47 35
-41 24z"/>
<path d="M3786 4977 c3 -10 9 -15 12 -12 3 3 0 11 -7 18 -10 9 -11 8 -5 -6z"/>
<path d="M3600 4965 c0 -4 20 -26 45 -51 25 -24 45 -39 45 -34 0 10 -40 54
-72 79 -10 7 -18 10 -18 6z"/>
<path d="M3250 4931 c0 -11 81 -91 92 -91 3 0 25 -23 47 -51 38 -48 41 -50 41
-25 0 16 -10 35 -27 49 -15 12 -53 46 -84 75 -56 52 -69 60 -69 43z"/>
<path d="M3780 4876 c36 -36 66 -66 68 -66 20 0 -76 103 -116 124 -9 5 12 -21
48 -58z"/>
<path d="M3996 4907 c3 -10 9 -15 12 -12 3 3 0 11 -7 18 -10 9 -11 8 -5 -6z"/>
<path d="M3505 4861 c28 -27 52 -44 54 -39 4 11 -78 87 -94 87 -5 1 13 -21 40
-48z"/>
<path d="M3650 4856 c25 -24 47 -42 49 -40 7 6 -71 84 -83 84 -6 0 9 -20 34
-44z"/>
<path d="M3800 4807 c35 -36 66 -64 69 -61 6 6 -45 59 -94 97 -29 22 -22 12
25 -36z"/>
<path d="M3260 4851 c0 -7 21 -31 47 -54 43 -39 74 -69 109 -108 15 -17 19
-39 6 -39 -4 0 -40 30 -80 66 -100 92 -90 58 13 -43 74 -72 103 -114 78 -113
-5 1 -39 30 -78 65 -50 46 -71 60 -73 49 -2 -9 15 -31 40 -52 55 -47 87 -78
121 -122 l28 -35 -5 40 c-8 55 -13 90 -22 158 -5 46 -11 60 -28 67 -12 4 -34
22 -51 40 -44 46 -105 93 -105 81z"/>
<path d="M3480 4825 c0 -2 23 -26 50 -53 60 -59 67 -46 8 15 -38 39 -58 52
-58 38z"/>
<path d="M3630 4824 c0 -12 90 -99 90 -87 0 11 -16 30 -57 67 -18 17 -33 26
-33 20z"/>
<path d="M3760 4797 c0 -2 15 -16 33 -33 l32 -29 -29 33 c-28 30 -36 37 -36
29z"/>
<path d="M3536 4696 c54 -59 65 -66 57 -36 -5 18 -83 90 -99 90 -4 0 15 -24
42 -54z"/>
<path d="M3665 4725 c17 -14 40 -38 52 -52 19 -24 22 -25 17 -6 -3 12 -23 35
-44 52 -46 37 -68 42 -25 6z"/>
<path d="M3842 4715 c12 -26 28 -34 28 -12 0 7 -9 18 -20 25 -18 11 -19 10 -8
-13z"/>
<path d="M3984 4722 c4 -3 14 -7 22 -8 9 -1 13 0 10 4 -4 3 -14 7 -22 8 -9 1
-13 0 -10 -4z"/>
<path d="M3790 4713 c0 -12 38 -48 45 -41 3 2 -6 15 -20 28 -14 13 -25 19 -25
13z"/>
<path d="M4077 4693 c-3 -5 4 -15 16 -23 21 -12 21 -12 7 6 -8 10 -15 20 -16
22 -1 2 -4 -1 -7 -5z"/>
<path d="M3510 4662 c0 -5 17 -25 38 -43 21 -19 44 -43 50 -54 11 -20 11 -20
12 2 0 13 -18 36 -50 63 -27 23 -50 37 -50 32z"/>
<path d="M3797 4649 c29 -36 126 -130 130 -125 9 8 -21 42 -81 91 -34 27 -56
42 -49 34z"/>
<path d="M3866 4634 c12 -17 20 -22 27 -15 8 8 5 15 -9 26 -29 22 -36 18 -18
-11z"/>
<path d="M3726 4608 c10 -14 21 -24 23 -22 3 3 -6 15 -18 27 l-24 22 19 -27z"/>
<path d="M4112 4604 c10 -10 20 -16 22 -13 3 3 -5 11 -17 18 -21 13 -21 12 -5
-5z"/>
<path d="M3290 4582 c0 -15 57 -71 112 -110 10 -7 18 -19 18 -27 0 -7 10 -22
23 -32 22 -18 43 -53 30 -53 -6 0 -58 42 -128 104 -29 25 -41 31 -43 21 -4
-17 0 -20 81 -89 31 -27 57 -54 57 -61 0 -7 10 -19 21 -27 13 -8 20 -21 18
-33 -3 -15 -18 -6 -87 54 -65 58 -82 69 -82 53 0 -13 26 -41 75 -79 41 -32 74
-64 75 -72 0 -7 11 -27 25 -43 48 -56 13 -48 -58 14 -115 99 -107 94 -107 72
0 -19 105 -114 114 -104 8 7 35 -33 36 -51 0 -9 9 -24 19 -33 18 -17 35 -56
24 -56 -3 0 -44 32 -90 71 -85 72 -111 83 -77 32 10 -15 18 -31 17 -34 -1 -4
3 -6 10 -5 17 1 107 -74 107 -90 0 -7 9 -22 21 -33 26 -24 52 -71 37 -68 -10
2 -24 13 -123 96 -33 28 -63 51 -67 51 -22 0 17 -49 82 -103 44 -37 76 -72 78
-85 2 -12 12 -26 21 -32 10 -5 21 -21 23 -34 4 -22 3 -24 -13 -16 -9 6 -23 16
-31 23 -7 7 -42 37 -78 67 -54 45 -66 50 -69 35 -2 -10 4 -24 13 -30 9 -7 16
-22 16 -34 0 -11 4 -21 9 -21 5 0 7 9 4 20 -3 11 -1 20 3 20 12 -1 84 -68 84
-79 0 -5 7 -11 15 -15 8 -3 15 -16 15 -30 0 -14 10 -30 24 -39 13 -9 26 -27
28 -41 3 -14 4 -26 2 -26 -1 0 -42 32 -91 71 -48 40 -94 77 -102 83 -11 9 -13
6 -6 -14 4 -14 13 -32 20 -40 7 -8 15 -26 18 -40 4 -24 4 -24 6 3 l1 28 45
-33 c24 -18 44 -38 45 -44 0 -7 7 -14 15 -18 8 -3 15 -16 15 -30 0 -14 10 -33
23 -43 21 -16 49 -82 30 -70 -4 3 -51 39 -103 81 -69 55 -96 72 -98 60 -2 -8
3 -23 12 -33 9 -10 16 -27 16 -39 0 -11 5 -24 11 -28 8 -5 10 1 7 20 -3 14 -2
26 3 26 17 0 119 -105 119 -123 0 -11 -5 -16 -12 -12 -7 4 3 -9 23 -27 33 -29
60 -78 44 -78 -3 0 -48 34 -99 76 -52 42 -98 75 -103 74 -12 -2 -3 -33 15 -50
10 -8 47 -39 85 -69 37 -30 68 -62 69 -70 0 -9 2 -22 2 -29 1 -8 10 -21 22
-31 21 -17 38 -61 24 -61 -5 0 -34 21 -67 47 -32 26 -77 62 -100 81 -43 34
-43 34 -43 10 0 -18 23 -42 95 -101 65 -53 95 -84 95 -99 0 -17 -2 -18 -15 -8
-9 7 -18 11 -21 8 -3 -3 14 -20 36 -38 37 -29 67 -76 57 -87 -2 -2 -53 35
-113 82 -96 75 -109 83 -112 64 -2 -12 5 -29 17 -40 14 -13 21 -32 21 -54 0
-19 5 -35 10 -35 7 0 8 13 4 35 -3 19 -2 35 3 35 20 0 131 -116 136 -142 4
-28 -1 -34 -18 -20 -6 4 9 -11 33 -33 24 -24 42 -51 42 -64 0 -19 -13 -12 -99
53 -55 42 -102 80 -106 86 -11 18 -25 10 -25 -15 0 -14 9 -30 20 -37 12 -8 20
-24 21 -43 0 -16 5 -39 10 -50 7 -15 8 -8 5 28 -2 26 -2 47 -1 47 1 0 22 -16
46 -35 24 -19 50 -35 57 -35 6 0 12 -7 12 -15 0 -7 6 -18 14 -22 13 -8 28 -73
16 -73 -3 0 -11 5 -18 12 -8 8 -12 8 -12 1 0 -5 18 -23 40 -38 25 -17 43 -39
49 -59 4 -17 7 -33 5 -35 -1 -2 -46 30 -99 70 -53 41 -108 82 -121 92 l-24 19
0 -30 c0 -21 8 -35 25 -46 14 -9 22 -22 19 -30 -3 -8 -1 -23 5 -33 9 -15 10
-13 5 11 -8 35 -5 34 74 -24 59 -44 82 -78 82 -123 0 -11 13 -32 29 -46 29
-26 56 -105 28 -84 -66 52 -223 166 -233 170 -18 7 -6 -36 16 -62 10 -11 20
-41 22 -68 3 -26 9 -51 13 -55 4 -4 5 19 2 50 -7 70 -3 69 91 -19 56 -52 62
-62 64 -101 1 -32 8 -49 25 -61 27 -22 60 -106 37 -97 -8 3 -68 46 -134 96
-119 90 -120 90 -120 61 0 -31 -2 -29 136 -131 80 -59 81 -61 87 -112 5 -40
13 -58 37 -79 20 -19 30 -37 30 -56 0 -16 6 -35 13 -43 20 -22 -40 18 -160
107 -62 46 -114 83 -116 83 -12 0 9 -67 26 -81 15 -12 22 -31 25 -78 2 -34 9
-64 14 -67 7 -4 8 19 3 66 l-7 73 61 -47 c33 -26 61 -54 61 -62 0 -8 4 -13 9
-10 11 7 34 -20 37 -43 13 -90 17 -103 45 -130 16 -16 29 -40 29 -53 0 -13 5
-29 12 -36 24 -24 1 -21 -33 4 -19 14 -79 58 -134 97 -55 39 -102 75 -103 79
-8 18 -18 -3 -15 -29 3 -20 19 -39 54 -63 57 -40 159 -115 175 -129 6 -5 14
-39 18 -75 6 -58 11 -71 37 -94 20 -18 32 -39 33 -58 2 -17 6 -36 10 -42 4 -7
2 -12 -4 -12 -10 0 -29 13 -193 129 -47 34 -88 61 -91 61 -16 0 -3 -52 18 -72
20 -19 27 -38 35 -108 l10 -85 -5 83 c-4 67 -2 82 8 75 58 -36 128 -87 128
-93 0 -4 11 -12 23 -17 20 -9 25 -23 35 -89 9 -65 15 -82 40 -105 19 -18 31
-42 36 -70 4 -24 12 -50 19 -58 9 -11 4 -10 -21 3 -32 16 -194 124 -260 174
-18 13 -35 22 -36 21 -2 -2 -2 -18 1 -35 3 -20 14 -36 32 -47 21 -12 27 -23
26 -44 -2 -18 -1 -20 2 -5 2 12 6 22 8 22 2 0 33 -21 67 -46 35 -25 77 -54 94
-65 27 -17 33 -28 42 -86 6 -37 10 -69 7 -71 -11 -12 -45 22 -45 45 0 14 -3
24 -6 20 -10 -10 6 -78 17 -72 5 4 9 -1 9 -9 0 -8 8 -17 18 -20 10 -4 32 -19
49 -36 23 -22 30 -39 31 -71 1 -24 7 -46 14 -50 7 -5 9 -11 6 -15 -4 -4 -79
41 -167 100 -88 58 -163 106 -165 106 -15 0 10 -68 30 -83 13 -10 24 -28 25
-40 0 -19 1 -19 7 -5 6 16 21 9 107 -48 55 -37 102 -68 104 -70 2 -2 9 -39 15
-83 12 -78 11 -79 -9 -69 -11 6 -22 12 -24 15 -3 2 -10 38 -17 81 l-13 77 5
-65 c8 -105 15 -132 31 -126 8 3 11 1 8 -4 -3 -5 17 -24 44 -42 41 -27 52 -40
56 -68 3 -19 9 -52 14 -72 10 -47 33 -58 -251 126 l-88 56 0 -35 c0 -28 5 -37
30 -50 22 -11 30 -23 31 -43 1 -23 2 -24 7 -6 7 19 15 16 117 -52 60 -39 111
-77 111 -83 1 -6 2 -15 3 -21 0 -5 28 -10 62 -10 l60 0 -4 43 c-2 23 -7 49 -9
57 -5 12 -49 295 -63 400 -2 14 -15 99 -29 190 -14 91 -33 212 -41 270 -9 58
-27 173 -40 255 -21 132 -35 223 -49 330 -2 17 -14 91 -26 165 -31 193 -47
299 -80 520 -16 107 -43 287 -60 400 -17 113 -40 264 -51 335 -11 72 -26 166
-34 210 -7 44 -16 98 -19 120 -5 40 -48 329 -67 440 -20 123 -24 151 -39 255
-21 144 -42 260 -49 260 -3 0 -7 35 -8 78 -2 81 -15 132 -34 132 -11 0 -76 52
-141 113 -23 21 -28 23 -28 9z"/>
<path d="M4060 4595 c0 -2 6 -8 13 -14 10 -8 14 -7 14 2 0 8 -6 14 -14 14 -7
0 -13 -1 -13 -2z"/>
<path d="M3680 4585 c0 -3 23 -28 50 -55 51 -50 66 -53 30 -7 -22 28 -80 73
-80 62z"/>
<path d="M3561 4537 c26 -23 50 -51 54 -62 8 -19 8 -19 13 -1 3 14 -10 32 -44
62 -64 56 -83 57 -23 1z"/>
<path d="M4129 4536 c14 -15 26 -26 28 -26 9 0 -24 40 -37 45 -8 4 -4 -5 9
-19z"/>
<path d="M3690 4505 c0 -3 25 -30 55 -60 57 -57 75 -60 29 -6 -26 32 -84 77
-84 66z"/>
<path d="M3902 4481 c25 -33 38 -38 38 -17 0 12 -40 46 -55 46 -4 0 4 -13 17
-29z"/>
<path d="M3576 4442 c29 -26 55 -56 58 -66 4 -10 9 -17 12 -14 11 12 -18 58
-59 92 -64 52 -71 44 -11 -12z"/>
<path d="M3716 4407 c3 -8 23 -29 45 -46 21 -18 39 -38 39 -46 0 -8 5 -15 10
-15 26 0 -4 46 -60 90 -22 17 -37 25 -34 17z"/>
<path d="M3860 4393 c7 -11 25 -28 39 -37 14 -10 39 -36 54 -57 26 -36 47 -44
47 -18 0 6 -4 7 -10 4 -5 -3 -10 3 -10 14 0 12 -6 21 -14 21 -7 0 -19 7 -26
15 -7 9 -31 30 -53 47 -27 22 -36 26 -27 11z"/>
<path d="M3940 4380 c6 -11 15 -20 19 -20 5 0 7 9 4 20 -3 11 -12 20 -20 20
-11 0 -11 -4 -3 -20z"/>
<path d="M3596 4342 c29 -26 55 -56 58 -66 4 -10 9 -17 12 -14 11 12 -18 58
-59 92 -64 52 -71 44 -11 -12z"/>
<path d="M4171 4333 c0 -4 13 -18 30 -31 16 -13 29 -20 28 -15 0 4 -13 18 -30
31 -16 13 -29 20 -28 15z"/>
<path d="M3780 4263 c30 -32 55 -60 57 -62 2 -2 3 3 3 13 0 17 -87 106 -104
106 -5 0 15 -26 44 -57z"/>
<path d="M3922 4264 c31 -32 64 -67 74 -77 9 -10 19 -16 21 -13 12 11 -12 44
-59 81 -87 69 -95 71 -36 9z"/>
<path d="M3570 4288 c0 -7 23 -32 50 -56 28 -24 50 -50 50 -58 0 -7 4 -14 9
-14 4 0 6 11 3 25 -5 27 -112 125 -112 103z"/>
<path d="M3750 4222 c0 -5 21 -29 48 -54 26 -25 52 -54 58 -64 10 -17 11 -16
7 8 -5 26 -113 132 -113 110z"/>
<path d="M3935 4183 c28 -27 63 -64 78 -82 16 -18 31 -31 33 -28 11 11 -22 55
-68 92 -82 65 -96 71 -43 18z"/>
<path d="M3590 4181 c0 -6 21 -30 46 -53 25 -23 50 -53 55 -67 12 -30 22 -22
14 12 -7 25 -115 127 -115 108z"/>
<path d="M3973 4066 c37 -35 67 -69 67 -75 0 -6 6 -11 14 -11 8 0 17 -6 19
-12 3 -7 6 -3 6 10 1 12 -3 22 -9 22 -5 0 -10 7 -10 15 0 8 -5 15 -11 15 -6 0
-36 23 -68 50 -82 71 -87 62 -8 -14z"/>
<path d="M3820 4064 c28 -26 50 -53 50 -60 0 -7 5 -16 10 -19 7 -4 9 4 6 21
-3 16 -23 44 -48 66 -62 54 -77 47 -18 -8z"/>
<path d="M4249 4097 c14 -17 3 -23 -15 -9 -5 4 10 -12 34 -36 24 -24 47 -40
50 -37 4 4 -8 19 -27 34 -19 16 -29 30 -23 32 7 2 3 10 -10 18 -21 13 -22 13
-9 -2z"/>
<path d="M3600 4073 c0 -5 25 -30 55 -57 30 -26 55 -54 55 -61 0 -8 5 -17 11
-21 9 -5 10 1 5 22 -9 36 -126 144 -126 117z"/>
<path d="M4227 4050 c18 -19 34 -32 36 -29 2 2 -12 17 -32 33 l-36 30 32 -34z"/>
<path d="M4192 4047 c44 -45 158 -136 158 -128 0 6 -7 14 -16 19 -8 5 -16 16
-18 24 -3 24 -28 51 -36 38 -4 -6 -22 4 -47 25 -39 34 -69 49 -41 22z m113
-67 c3 -5 2 -10 -4 -10 -5 0 -13 5 -16 10 -3 6 -2 10 4 10 5 0 13 -4 16 -10z"/>
<path d="M4131 4017 c2 -1 15 -11 29 -22 l25 -20 -19 23 c-11 12 -24 22 -29
22 -6 0 -8 -1 -6 -3z"/>
<path d="M3800 4002 c0 -5 21 -29 48 -54 26 -25 52 -54 58 -64 10 -17 11 -16
7 8 -5 26 -113 132 -113 110z"/>
<path d="M4192 3974 c3 -12 178 -164 189 -164 3 0 6 7 6 15 0 8 -6 15 -13 15
-7 0 -22 10 -34 22 -11 12 -20 18 -20 12 0 -5 -3 -5 -8 1 -4 6 -29 28 -57 50
-27 21 -54 44 -58 50 -6 7 -7 6 -5 -1z"/>
<path d="M3620 3951 c0 -6 23 -29 51 -53 28 -23 57 -56 64 -73 l13 -30 1 28
c1 28 -7 39 -82 105 -38 34 -47 38 -47 23z"/>
<path d="M4057 3910 c15 -22 30 -37 35 -32 9 9 -1 54 -12 47 -4 -3 -13 2 -20
10 -26 31 -28 13 -3 -25z"/>
<path d="M3970 3914 c0 -7 17 -23 83 -77 20 -17 37 -39 37 -48 0 -10 14 -27
30 -39 35 -25 38 -22 11 9 -11 13 -18 28 -16 34 2 7 -29 38 -70 70 -41 31 -75
54 -75 51z"/>
<path d="M4160 3911 c0 -6 6 -11 14 -11 8 0 16 -4 18 -9 6 -16 219 -193 225
-187 4 3 1 16 -5 28 -6 13 -11 17 -11 10 -1 -7 -6 -10 -11 -7 -6 4 -7 11 -4
17 4 7 2 8 -4 4 -7 -4 -12 -3 -12 3 0 5 6 12 13 14 9 4 9 6 0 6 -6 1 -15 -4
-18 -9 -4 -7 -16 -1 -30 14 -13 14 -26 22 -29 19 -12 -12 -6 13 7 27 10 12 9
12 -5 1 -16 -12 -24 -8 -64 25 -69 58 -84 68 -84 55z"/>
<path d="M4290 3916 c0 -3 9 -10 20 -16 11 -6 20 -8 20 -6 0 3 -9 10 -20 16
-11 6 -20 8 -20 6z"/>
<path d="M4231 3898 c2 -2 20 -16 39 -33 l35 -30 -29 33 c-17 17 -34 32 -40
32 -5 0 -7 -1 -5 -2z"/>
<path d="M3831 3883 c0 -4 20 -24 45 -43 25 -20 46 -47 50 -62 4 -16 10 -28
14 -28 5 0 5 11 2 24 -7 22 -113 127 -111 109z"/>
<path d="M3650 3810 c6 -11 30 -34 54 -52 24 -18 48 -46 55 -62 13 -37 20 -31
14 11 -4 24 -19 42 -64 77 -66 51 -75 55 -59 26z"/>
<path d="M4336 3805 c4 -8 11 -15 16 -15 6 0 5 6 -2 15 -7 8 -14 15 -16 15 -2
0 -1 -7 2 -15z"/>
<path d="M4055 3744 c39 -39 78 -81 88 -94 13 -17 17 -19 13 -7 -3 10 -6 27
-6 38 0 10 -6 19 -14 19 -7 0 -35 19 -62 42 -85 73 -91 74 -19 2z"/>
<path d="M4200 3796 c36 -33 240 -206 244 -206 13 0 12 31 -2 42 -11 9 -14 9
-8 1 5 -9 2 -11 -8 -7 -9 3 -13 11 -9 18 3 6 3 8 -2 4 -10 -10 -37 11 -29 23
3 5 -1 7 -8 4 -7 -3 -49 26 -93 65 -44 38 -84 70 -90 70 -5 0 -3 -6 5 -14z"/>
<path d="M3850 3761 c0 -5 22 -29 50 -53 27 -24 50 -51 50 -60 0 -9 5 -20 12
-24 8 -5 9 2 4 26 -3 19 -7 34 -9 35 -1 0 -26 20 -54 44 -29 24 -53 38 -53 32z"/>
<path d="M3670 3692 c0 -11 89 -82 102 -82 4 0 11 -18 14 -40 8 -49 22 -54 16
-6 -3 28 -16 43 -68 85 -35 28 -64 48 -64 43z"/>
<path d="M4230 3692 c0 -6 21 -27 47 -48 26 -22 81 -69 122 -106 42 -37 79
-68 82 -68 16 0 16 30 1 42 -11 9 -14 10 -8 1 16 -28 -12 -8 -125 88 -66 55
-119 96 -119 91z"/>
<path d="M3923 3587 c31 -29 57 -60 57 -68 0 -9 6 -21 13 -28 11 -8 13 -5 9
19 -3 21 -21 45 -62 80 -76 66 -91 64 -17 -3z"/>
<path d="M4071 3637 c2 -1 13 -9 24 -17 19 -14 19 -14 6 3 -7 9 -18 17 -24 17
-6 0 -8 -1 -6 -3z"/>
<path d="M4120 3606 c0 -6 44 -75 61 -94 16 -20 24 -5 8 15 -11 13 -11 15 -1
9 11 -7 11 -5 2 10 -13 20 -70 69 -70 60z"/>
<path d="M4261 3572 c5 -12 236 -209 264 -224 20 -11 20 -11 1 11 -19 21 -19
21 -1 15 13 -5 16 -4 11 5 -4 6 -14 10 -21 9 -15 -3 -36 12 -154 113 -86 73
-105 87 -100 71z"/>
<path d="M3690 3551 c0 -5 26 -30 59 -55 46 -35 60 -53 65 -80 4 -20 12 -38
18 -42 8 -5 9 -1 5 10 -4 10 -7 27 -7 38 0 12 -19 39 -42 60 -57 53 -98 82
-98 69z"/>
<path d="M4070 3541 c0 -5 27 -33 60 -62 33 -28 57 -55 54 -60 -2 -5 9 -23 26
-40 16 -18 30 -37 30 -42 0 -6 3 -7 6 -4 4 4 -1 18 -10 31 -9 14 -16 39 -16
56 0 17 -5 30 -13 30 -7 0 -40 23 -75 50 -34 28 -62 47 -62 41z"/>
<path d="M3903 3496 c4 -10 7 -19 7 -21 0 -2 23 -20 50 -40 28 -20 50 -45 50
-55 0 -9 8 -24 17 -31 15 -12 16 -12 10 4 -4 10 -7 26 -7 35 0 9 -30 42 -67
72 -37 30 -64 46 -60 36z"/>
<path d="M4290 3453 c0 -4 17 -21 38 -38 20 -16 83 -69 139 -117 56 -48 103
-88 105 -88 11 0 3 50 -9 54 -8 3 -12 10 -9 15 3 5 -2 15 -12 22 -15 13 -16
12 -3 -3 10 -14 10 -18 1 -18 -9 0 -9 -4 1 -17 13 -16 12 -17 -3 -5 -10 8 -16
17 -15 20 1 4 -2 8 -6 9 -8 2 -78 52 -87 63 -3 3 -26 23 -52 44 -27 22 -45 43
-41 50 3 6 3 8 -2 4 -4 -4 -16 -3 -26 3 -11 5 -19 6 -19 2z"/>
<path d="M4380 3436 c0 -2 8 -10 18 -17 15 -13 16 -12 3 4 -13 16 -21 21 -21
13z"/>
<path d="M4153 3357 c43 -40 77 -79 77 -87 0 -16 18 -40 31 -40 4 0 10 7 13
16 4 10 2 13 -6 8 -8 -5 -9 -2 -5 9 3 10 2 17 -4 17 -5 0 -9 8 -7 18 2 9 -2
16 -8 15 -6 -1 -43 25 -83 58 -40 32 -76 59 -79 59 -4 0 28 -33 71 -73z"/>
<path d="M3712 3406 c1 -8 30 -37 63 -63 50 -41 61 -55 68 -91 4 -23 13 -42
18 -42 10 0 7 32 -7 82 -6 22 -147 135 -142 114z"/>
<path d="M4420 3406 c0 -2 8 -10 18 -17 15 -13 16 -12 3 4 -13 16 -21 21 -21
13z"/>
<path d="M3930 3353 c0 -5 24 -29 54 -53 33 -27 57 -56 61 -72 10 -42 29 -48
20 -7 -4 21 -21 47 -43 67 -50 46 -92 75 -92 65z"/>
<path d="M4480 3349 c0 -5 -6 -7 -12 -3 -10 6 -9 3 0 -8 8 -10 20 -14 29 -11
12 5 14 3 8 -7 -5 -9 -4 -11 3 -6 15 9 15 9 -8 29 -11 9 -20 12 -20 6z"/>
<path d="M4330 3321 c0 -9 124 -119 198 -175 14 -11 39 -33 56 -48 l31 -29 6
23 c6 23 -20 58 -44 58 -6 0 -2 -7 9 -15 10 -8 15 -15 11 -15 -5 0 -67 48
-138 106 -71 58 -129 101 -129 95z"/>
<path d="M4415 3310 c10 -11 20 -20 23 -20 3 0 -3 9 -13 20 -10 11 -20 20 -23
20 -3 0 3 -9 13 -20z"/>
<path d="M4120 3282 c0 -5 19 -25 43 -45 74 -61 98 -87 92 -98 -4 -5 6 -22 22
-36 15 -15 34 -38 40 -52 l13 -26 -7 25 c-4 14 -7 36 -8 50 -2 14 -4 27 -5 30
-1 3 -2 9 -1 13 1 5 -3 6 -9 2 -6 -4 -10 5 -10 22 0 15 -5 35 -10 43 -8 11 -9
8 -4 -12 3 -16 4 -28 1 -28 -3 0 -32 21 -64 48 -89 72 -93 75 -93 64z"/>
<path d="M4505 3232 c21 -23 33 -42 26 -42 -7 0 -3 -8 10 -19 13 -10 30 -16
37 -13 14 5 -4 25 -83 92 -20 16 -16 10 10 -18z m60 -53 c11 -16 1 -19 -13 -3
-7 8 -8 14 -3 14 5 0 13 -5 16 -11z"/>
<path d="M3737 3238 c3 -13 25 -39 50 -58 24 -19 50 -40 57 -45 7 -6 17 -21
21 -35 l8 -24 -29 18 c-21 12 -18 7 11 -18 48 -42 58 -45 45 -10 -6 14 -10 37
-10 52 0 22 -14 38 -70 82 -84 65 -89 68 -83 38z"/>
<path d="M3960 3203 c0 -13 12 -26 68 -72 28 -23 52 -51 52 -60 0 -9 7 -26 15
-37 14 -18 15 -16 9 21 -4 30 -16 50 -47 79 -52 48 -97 80 -97 69z"/>
<path d="M4370 3182 c0 -5 48 -49 106 -98 59 -49 126 -106 150 -128 l44 -39 0
30 c0 33 -41 80 -60 68 -13 -8 -52 23 -45 36 3 4 0 11 -6 15 -8 4 -9 3 -5 -4
10 -16 -5 -14 -28 3 -10 8 -15 19 -10 26 4 8 3 10 -5 5 -7 -4 -38 14 -76 44
-36 29 -65 47 -65 42z"/>
<path d="M4440 3188 c0 -7 146 -128 155 -128 3 0 -22 23 -57 52 -35 28 -71 58
-80 66 -10 8 -18 13 -18 10z"/>
<path d="M3775 3136 c17 -13 32 -22 34 -20 5 5 -42 43 -54 44 -5 0 4 -11 20
-24z"/>
<path d="M4192 3097 c25 -23 60 -52 77 -65 19 -14 31 -33 31 -46 0 -12 12 -33
27 -47 19 -17 24 -19 20 -7 -3 9 -9 33 -13 52 -3 20 -11 36 -16 36 -11 0 -141
100 -146 112 -2 5 -9 8 -15 8 -7 0 9 -19 35 -43z"/>
<path d="M3930 3101 c0 -5 5 -13 10 -16 6 -3 10 -2 10 4 0 5 -4 13 -10 16 -5
3 -10 2 -10 -4z"/>
<path d="M3766 3075 c4 -17 7 -30 8 -30 3 -1 102 -81 112 -90 12 -12 25 -55
16 -55 -3 0 -26 17 -51 38 -55 45 -77 60 -67 43 10 -15 146 -124 151 -119 2 1
-2 28 -8 59 -11 51 -17 60 -72 104 -33 26 -68 55 -78 64 -17 15 -18 14 -11
-14z"/>
<path d="M3990 3046 c0 -19 31 -53 93 -100 20 -16 37 -38 37 -48 0 -19 -10
-23 -26 -10 -5 4 7 -7 26 -25 19 -17 36 -30 38 -28 9 8 -29 120 -43 128 -9 5
-33 23 -53 40 -78 65 -72 62 -72 43z"/>
<path d="M4410 3043 c0 -4 8 -18 18 -30 20 -25 212 -186 212 -177 0 3 12 -8
26 -25 14 -18 36 -36 48 -42 17 -9 19 -9 9 1 -7 7 -9 25 -6 40 5 28 -17 47
-39 34 -6 -4 -6 1 1 13 8 17 5 24 -17 45 -49 44 -56 47 -69 33 -10 -10 -9 -14
3 -19 9 -4 12 -2 8 5 -4 7 -1 10 7 7 8 -3 14 -12 14 -21 0 -8 4 -19 8 -24 5
-4 7 -3 5 2 -2 6 0 11 5 13 17 5 19 1 6 -14 -12 -15 -11 -16 11 -10 21 6 22 5
7 -4 -18 -12 -29 -4 -209 142 -27 22 -48 36 -48 31z"/>
<path d="M4587 3033 c3 -7 9 -13 15 -13 5 0 6 5 2 12 -5 8 -2 9 10 5 9 -4 15
-3 11 2 -9 15 -44 9 -38 -6z"/>
<path d="M4525 2991 c-3 -5 0 -13 6 -17 8 -5 9 -3 4 6 -6 10 -4 12 9 7 10 -4
15 -3 11 3 -8 13 -22 13 -30 1z"/>
<path d="M4190 2970 c0 -5 5 -10 10 -10 6 0 10 5 10 10 0 6 -4 10 -10 10 -5 0
-10 -4 -10 -10z"/>
<path d="M4350 2961 c0 -6 4 -13 10 -16 6 -3 7 1 4 9 -7 18 -14 21 -14 7z"/>
<path d="M4033 2930 c14 -11 28 -20 32 -20 4 0 -4 9 -18 20 -14 11 -28 20 -32
20 -4 0 4 -9 18 -20z"/>
<path d="M3960 2920 c0 -5 7 -10 16 -10 8 0 12 5 9 10 -3 6 -10 10 -16 10 -5
0 -9 -4 -9 -10z"/>
<path d="M3794 2894 c2 -10 33 -43 71 -73 57 -47 70 -63 79 -100 6 -25 16 -46
22 -48 8 -3 7 16 -4 59 -14 60 -18 66 -83 118 -77 62 -88 68 -85 44z"/>
<path d="M4361 2894 c0 -11 3 -14 6 -6 3 7 2 16 -1 19 -3 4 -6 -2 -5 -13z"/>
<path d="M4028 2885 c-14 -15 8 -54 50 -85 67 -51 82 -67 82 -92 0 -19 -2 -20
-18 -7 -10 8 -2 0 17 -18 20 -17 37 -30 39 -28 3 2 -1 18 -7 36 -6 18 -11 42
-11 55 0 16 -20 38 -67 75 -38 30 -71 57 -74 61 -3 5 -8 6 -11 3z"/>
<path d="M4320 2865 c14 -15 21 -31 17 -45 -4 -14 4 -28 28 -48 18 -15 37 -40
41 -56 8 -34 11 -36 -104 58 -40 32 -74 57 -77 55 -12 -12 34 -70 88 -110 42
-31 62 -53 63 -68 1 -12 17 -39 37 -59 36 -39 62 -92 36 -76 -14 8 -101 77
-147 116 -28 23 -35 19 -27 -13 4 -14 35 -45 70 -71 47 -35 66 -57 76 -85 6
-21 22 -46 35 -56 24 -19 58 -77 49 -85 -3 -3 -18 6 -33 20 -33 31 -149 118
-156 118 -3 0 -1 -13 5 -28 5 -16 33 -46 62 -68 67 -50 87 -72 87 -97 0 -11
18 -37 40 -58 22 -21 40 -44 40 -52 0 -7 5 -18 12 -25 6 -6 9 -14 6 -17 -3 -3
-49 28 -102 70 -53 41 -98 75 -100 75 -2 0 -1 -12 2 -26 3 -17 29 -45 77 -82
63 -49 74 -62 80 -97 5 -28 17 -48 41 -68 29 -25 71 -94 61 -103 -1 -2 -47 33
-102 76 -55 43 -102 77 -104 75 -2 -2 -1 -15 3 -28 3 -15 36 -47 81 -81 71
-53 86 -74 89 -125 1 -9 19 -33 42 -53 22 -21 41 -43 41 -50 0 -7 4 -22 9 -32
8 -21 -23 -1 -141 88 -33 25 -63 46 -66 46 -3 0 -4 -12 -1 -26 3 -16 9 -23 18
-20 8 3 14 -1 14 -9 0 -15 94 -89 104 -83 11 6 33 -38 45 -89 10 -39 21 -58
45 -76 27 -21 63 -93 52 -104 -1 -2 -51 33 -109 77 -59 43 -107 74 -107 67 1
-36 18 -57 90 -107 71 -49 80 -59 90 -99 8 -30 8 -46 1 -51 -6 -3 11 -22 38
-42 36 -27 53 -48 64 -82 9 -25 13 -46 9 -46 -6 0 -122 84 -194 139 -34 27
-36 26 -30 -4 5 -26 36 -56 124 -118 50 -35 55 -42 71 -105 15 -56 23 -71 52
-91 25 -17 38 -36 48 -70 7 -25 12 -48 11 -50 -1 -1 -22 11 -46 28 -24 17 -76
54 -117 82 l-74 52 6 -32 c6 -30 27 -61 42 -61 3 0 37 -23 74 -51 67 -49 69
-53 82 -112 11 -53 20 -69 61 -109 28 -27 48 -55 48 -68 0 -12 5 -30 10 -41 6
-10 8 -19 5 -19 -9 0 -194 128 -222 153 l-23 20 0 -22 c0 -25 29 -81 42 -81
15 0 119 -72 125 -86 3 -7 9 -11 14 -8 5 3 9 4 9 2 0 -2 9 -34 20 -71 15 -55
16 -66 5 -57 -12 10 -15 9 -15 -3 0 -8 25 -32 55 -53 36 -24 58 -47 61 -63 3
-14 7 -30 9 -36 1 -5 3 -14 4 -20 2 -5 10 -18 18 -27 28 -31 5 -20 -84 39
-193 131 -187 128 -172 83 6 -16 17 -30 25 -30 8 0 14 -6 14 -12 1 -7 36 -37
79 -66 71 -47 80 -57 90 -97 l11 -45 60 0 c33 0 60 3 60 7 0 4 -22 83 -49 177
-26 94 -67 241 -90 326 -24 85 -63 225 -87 310 -24 85 -51 180 -59 210 -24 88
-74 268 -101 360 -13 47 -60 216 -105 375 -44 160 -86 310 -93 335 -7 25 -23
81 -35 125 -12 44 -44 161 -71 260 -28 99 -52 186 -53 193 -2 7 -7 11 -12 10
-9 -3 -24 44 -29 95 -2 15 -6 30 -11 35 -4 4 -4 -4 -1 -18 6 -19 5 -21 -3 -10
-6 8 -11 25 -11 38 0 14 -8 26 -24 32 -13 5 -27 14 -31 19 -3 6 -11 11 -17 11
-6 0 -1 -11 12 -25z"/>
<path d="M4471 2863 c35 -38 91 -88 100 -88 4 0 30 -21 57 -47 28 -27 53 -48
57 -48 3 0 18 -14 32 -30 14 -17 34 -35 45 -41 17 -9 18 -8 6 10 -9 16 -10 23
-1 32 9 9 7 16 -10 29 -16 13 -24 15 -29 7 -5 -8 -11 -9 -15 -2 -5 6 -24 22
-45 37 -20 15 -42 33 -50 40 -34 32 -156 128 -163 128 -5 0 2 -12 16 -27z"/>
<path d="M4543 2756 c26 -24 27 -31 4 -27 -5 1 -6 -3 -2 -9 3 -6 11 -8 16 -5
12 8 64 -33 64 -50 0 -7 20 -32 45 -55 25 -22 -3 -3 -62 44 -60 47 -108 80
-108 73 0 -14 4 -18 125 -111 87 -67 118 -96 178 -166 26 -31 49 -37 31 -8
-12 19 -12 48 0 48 6 1 -7 16 -29 36 -23 19 -31 31 -20 27 18 -6 19 -5 6 11
-8 9 -20 15 -28 12 -8 -3 -11 -2 -8 4 5 7 -133 126 -214 184 -24 17 -24 16 2
-8z m112 -96 c3 -5 1 -10 -4 -10 -6 0 -11 5 -11 10 0 6 2 10 4 10 3 0 8 -4 11
-10z m55 -52 c0 -12 -6 -9 -26 13 -19 22 -19 22 4 8 12 -8 22 -17 22 -21z"/>
<path d="M4050 2766 c0 -2 12 -12 28 -21 l27 -18 -19 21 c-17 20 -36 29 -36
18z"/>
<path d="M4000 2741 c0 -5 5 -13 10 -16 6 -3 10 -2 10 4 0 5 -4 13 -10 16 -5
3 -10 2 -10 -4z"/>
<path d="M3827 2700 c3 -10 22 -32 42 -47 93 -71 111 -90 111 -118 0 -30 19
-80 26 -72 4 3 1 36 -6 72 l-12 66 -79 59 c-43 33 -80 60 -82 60 -3 0 -3 -9 0
-20z"/>
<path d="M4582 2683 c15 -15 30 -24 34 -20 7 7 -35 46 -51 47 -5 0 3 -12 17
-27z"/>
<path d="M4068 2674 c3 -17 27 -43 67 -75 39 -30 64 -58 67 -74 3 -14 2 -25
-1 -25 -3 0 -26 18 -51 40 -41 36 -60 47 -60 35 0 -2 36 -32 81 -66 54 -41 79
-55 76 -43 -4 11 -11 41 -18 67 -10 42 -21 55 -85 107 -40 33 -74 60 -77 60
-2 0 -2 -12 1 -26z"/>
<path d="M4510 2640 c0 -5 4 -10 8 -10 5 0 19 -34 31 -75 12 -41 25 -75 30
-75 4 0 50 -34 101 -75 51 -41 97 -72 103 -68 5 3 7 1 4 -4 -4 -6 1 -17 10
-24 15 -12 16 -12 10 4 -3 9 -4 17 -2 17 8 0 43 -38 54 -59 7 -11 20 -25 30
-31 18 -9 18 -7 8 25 -12 41 -5 53 20 35 10 -7 7 -2 -7 12 -14 13 -26 30 -28
36 -3 16 -53 61 -215 192 -130 105 -157 122 -157 100z"/>
<path d="M4040 2542 c0 -12 19 -26 26 -19 2 2 -2 10 -11 17 -9 8 -15 8 -15 2z"/>
<path d="M3860 2495 c0 -30 20 -54 84 -100 51 -36 65 -52 69 -78 2 -17 4 -33
3 -34 -1 -1 -32 21 -70 48 -37 28 -67 46 -65 41 5 -12 158 -132 169 -132 4 0
3 19 -1 43 -5 23 -12 56 -15 72 -4 20 -21 42 -52 65 -123 93 -122 93 -122 75z"/>
<path d="M4110 2477 c0 -20 15 -36 65 -73 54 -40 67 -55 75 -89 12 -47 22 -67
37 -72 6 -2 4 24 -5 67 -15 70 -17 72 -81 122 -36 28 -72 55 -78 61 -10 7 -13
3 -13 -16z"/>
<path d="M4560 2460 c0 -5 4 -10 9 -10 4 0 18 -35 31 -77 20 -70 26 -81 63
-106 23 -15 80 -57 126 -94 47 -37 82 -59 78 -50 -4 11 -3 16 3 12 6 -3 10
-10 10 -16 0 -10 81 -89 92 -89 4 0 1 19 -8 42 -8 22 -12 43 -10 45 2 3 17 -3
33 -12 l28 -17 -30 26 c-16 14 -30 32 -30 40 0 8 -63 65 -140 126 -77 62 -162
130 -188 151 -49 39 -67 47 -67 29z"/>
<path d="M4080 2328 c0 -9 5 -20 11 -23 17 -11 20 0 4 21 -13 17 -14 17 -15 2z"/>
<path d="M3900 2268 c0 -17 21 -39 78 -84 76 -59 78 -62 92 -124 20 -86 41
-93 24 -8 -8 35 -14 72 -14 83 -1 13 -28 39 -77 75 -42 30 -82 61 -90 68 -11
11 -13 10 -13 -10z"/>
<path d="M4150 2282 c0 -31 25 -65 77 -103 66 -48 73 -56 73 -84 0 -21 38 -90
46 -83 2 3 -4 38 -14 78 l-18 74 -82 64 c-45 35 -82 59 -82 54z"/>
<path d="M4620 2273 c0 -5 4 -13 8 -18 8 -10 16 -36 42 -132 6 -24 17 -43 24
-43 12 0 135 -92 269 -202 31 -25 62 -48 69 -51 7 -2 10 -8 6 -12 -4 -4 -76
47 -160 112 -168 132 -194 148 -203 133 -3 -6 0 -13 8 -15 7 -3 24 -46 38 -95
13 -50 28 -90 33 -90 5 0 42 -26 83 -57 172 -134 288 -221 291 -218 2 2 -4 24
-12 49 -23 67 -20 72 20 41 30 -23 38 -25 49 -14 12 12 2 24 -65 77 -50 39
-77 68 -74 76 3 8 -1 34 -9 58 -8 23 -13 45 -11 47 2 2 17 -8 34 -22 27 -23
61 -27 59 -8 0 3 -25 26 -56 50 -30 24 -131 104 -224 177 -186 147 -219 171
-219 157z"/>
<path d="M3580 2142 l5 -47 3 39 c2 21 0 42 -5 47 -4 4 -6 -13 -3 -39z"/>
<path d="M4180 2145 c0 -8 53 -54 63 -55 5 0 6 4 2 10 -8 13 -65 53 -65 45z"/>
<path d="M4126 2101 c-3 -5 1 -14 9 -21 12 -10 15 -10 15 3 0 19 -16 31 -24
18z"/>
<path d="M3712 2050 c0 -19 2 -27 5 -17 2 9 2 25 0 35 -3 9 -5 1 -5 -18z"/>
<path d="M4200 2046 c0 -30 14 -47 80 -96 63 -47 69 -55 80 -102 10 -50 25
-78 40 -78 4 0 -1 36 -12 79 l-20 80 -84 65 c-49 38 -84 60 -84 52z"/>
<path d="M3940 2016 c0 -20 17 -38 79 -85 61 -47 80 -67 85 -92 13 -68 18 -70
-131 44 -9 6 -13 6 -13 -1 0 -5 33 -34 73 -63 39 -30 81 -62 92 -72 26 -24 28
-15 12 79 -15 87 -8 79 -154 185 l-43 30 0 -25z"/>
<path d="M4180 1840 c6 -11 15 -20 21 -20 6 0 6 7 -1 20 -6 11 -15 20 -21 20
-6 0 -6 -7 1 -20z"/>
<path d="M4746 1822 c11 -11 30 -59 43 -110 14 -51 29 -92 34 -92 9 0 96 -64
307 -225 41 -31 76 -53 77 -48 2 5 -6 35 -16 66 -11 31 -17 57 -14 57 3 0 22
-12 40 -26 30 -23 37 -24 49 -12 12 12 7 19 -33 50 -27 20 -142 108 -258 197
-115 89 -219 161 -229 161 -20 0 -20 0 0 -18z"/>
<path d="M4253 1795 c4 -9 7 -22 7 -29 0 -6 33 -36 73 -65 68 -50 74 -58 84
-102 5 -27 6 -49 2 -49 -4 0 -9 3 -11 8 -4 8 -115 92 -123 92 -16 0 0 -21 30
-40 20 -12 41 -27 48 -34 28 -27 110 -78 105 -65 -3 8 -13 48 -22 90 l-17 75
-91 68 c-50 38 -88 61 -85 51z"/>
<path d="M2912 1755 c0 -16 2 -22 5 -12 2 9 2 23 0 30 -3 6 -5 -1 -5 -18z"/>
<path d="M3752 1755 c0 -16 2 -22 5 -12 2 9 2 23 0 30 -3 6 -5 -1 -5 -18z"/>
<path d="M3985 1748 c8 -38 1 -30 91 -96 67 -48 72 -55 81 -102 11 -54 6 -61
-22 -30 -10 11 -24 20 -30 20 -7 0 -18 7 -25 15 -24 29 -70 57 -70 43 0 -7 19
-26 43 -42 23 -16 66 -47 95 -69 29 -22 54 -38 57 -36 2 2 -3 33 -10 69 -8 36
-15 76 -15 90 0 20 -21 40 -101 98 l-101 73 7 -33z"/>
<path d="M3642 1595 c0 -16 2 -22 5 -12 2 9 2 23 0 30 -3 6 -5 -1 -5 -18z"/>
<path d="M4806 1601 c-3 -4 3 -14 12 -22 9 -8 25 -47 36 -87 10 -39 22 -70 26
-67 4 2 5 -8 3 -23 -4 -22 -2 -24 7 -12 10 13 11 11 7 -7 -3 -14 1 -23 12 -27
9 -3 45 -28 81 -55 130 -100 193 -142 186 -126 -3 9 -8 29 -11 43 -3 15 3 5
13 -22 14 -37 31 -60 68 -88 27 -21 52 -38 56 -38 4 0 -6 36 -21 80 -16 44
-26 80 -22 80 3 -1 22 -14 41 -30 30 -27 36 -28 49 -15 8 8 13 16 10 18 -37
33 -520 395 -532 400 -9 3 -19 3 -21 -2z"/>
<path d="M4230 1577 c0 -8 7 -20 15 -27 11 -9 15 -10 15 -1 0 7 -7 19 -15 27
-13 13 -15 13 -15 1z"/>
<path d="M3651 1534 c0 -11 3 -14 6 -6 3 7 2 16 -1 19 -3 4 -6 -2 -5 -13z"/>
<path d="M3782 1520 c0 -14 2 -19 5 -12 2 6 2 18 0 25 -3 6 -5 1 -5 -13z"/>
<path d="M4310 1527 c1 -37 19 -60 84 -107 l73 -51 13 -68 c8 -46 19 -72 31
-79 25 -16 25 0 0 95 -10 40 -17 74 -15 76 3 2 -38 36 -91 75 -52 39 -95 65
-95 59z"/>
<path d="M3790 1456 c0 -19 3 -37 8 -40 4 -2 6 13 4 35 -5 48 -12 51 -12 5z"/>
<path d="M4033 1469 c4 -13 7 -29 7 -36 0 -6 36 -36 79 -67 44 -30 82 -63 85
-73 3 -10 10 -45 16 -79 8 -42 18 -64 32 -73 19 -12 20 -11 15 11 -5 21 -25
129 -31 170 -2 18 -8 23 -130 113 -69 50 -78 55 -73 34z"/>
<path d="M3332 1455 c0 -16 2 -22 5 -12 2 9 2 23 0 30 -3 6 -5 -1 -5 -18z"/>
<path d="M4880 1344 c0 -3 9 -17 19 -32 11 -15 29 -65 41 -112 12 -47 27 -92
33 -101 7 -8 41 -35 77 -58 36 -24 70 -49 75 -55 6 -7 39 -32 75 -56 36 -24
74 -52 85 -63 23 -21 115 -89 115 -84 0 2 -13 42 -29 90 -17 48 -27 87 -24 87
3 0 22 -13 43 -30 34 -27 39 -28 51 -14 11 14 11 18 -1 28 -8 6 -130 97 -270
202 -232 173 -290 213 -290 198z"/>
<path d="M2980 1316 c0 -3 9 -10 20 -16 11 -6 20 -8 20 -6 0 3 -9 10 -20 16
-11 6 -20 8 -20 6z"/>
<path d="M3132 1275 c0 -16 2 -22 5 -12 2 9 2 23 0 30 -3 6 -5 -1 -5 -18z"/>
<path d="M4290 1283 c0 -12 5 -25 11 -28 19 -12 22 3 5 27 l-16 22 0 -21z"/>
<path d="M3100 1231 c14 -11 30 -21 35 -21 11 0 -7 14 -40 31 -13 7 -12 3 5
-10z"/>
<path d="M4373 1225 c4 -9 7 -22 7 -29 0 -7 33 -37 73 -66 39 -30 74 -55 76
-56 2 -2 12 -38 22 -80 17 -71 29 -93 53 -94 4 0 5 7 2 15 -3 9 -14 55 -23
103 -10 48 -21 88 -24 90 -4 2 -40 28 -80 58 -95 71 -114 82 -106 59z"/>
<path d="M3821 1204 c0 -11 3 -14 6 -6 3 7 2 16 -1 19 -3 4 -6 -2 -5 -13z"/>
<path d="M3160 1197 c0 -3 12 -12 26 -22 15 -9 23 -12 20 -6 -7 11 -46 35 -46
28z"/>
<path d="M3832 1155 c0 -16 2 -22 5 -12 2 9 2 23 0 30 -3 6 -5 -1 -5 -18z"/>
<path d="M4079 1162 c6 -12 11 -29 11 -39 0 -11 31 -39 84 -75 84 -58 85 -58
96 -115 7 -32 17 -64 24 -72 9 -12 8 -13 -4 -6 -17 10 -101 68 -142 98 -15 12
-30 18 -34 15 -8 -8 32 -44 96 -86 30 -20 68 -47 84 -59 16 -13 30 -22 33 -20
3 4 -17 131 -32 204 -3 13 -42 47 -102 90 -129 91 -127 90 -114 65z"/>
<path d="M3837 1100 c3 -11 7 -20 9 -20 2 0 4 9 4 20 0 11 -4 20 -9 20 -5 0
-7 -9 -4 -20z"/>
<path d="M4960 1062 c0 -3 6 -13 14 -21 7 -9 26 -59 41 -111 31 -104 41 -126
65 -134 8 -3 38 -22 66 -43 28 -21 86 -64 130 -95 44 -31 91 -68 104 -82 14
-14 35 -35 47 -48 13 -13 37 -32 54 -42 29 -17 30 -17 20 1 -6 10 -21 55 -34
100 -26 88 -23 93 31 43 23 -22 24 -22 42 -4 18 19 12 24 -266 228 -257 189
-314 227 -314 208z"/>
<path d="M4350 961 c0 -12 31 -43 37 -37 6 6 -20 46 -29 46 -5 0 -8 -4 -8 -9z"/>
<path d="M4443 886 c9 -25 32 -49 87 -88 76 -55 79 -59 104 -161 6 -26 4 -25
-74 28 -48 34 -80 50 -80 42 0 -16 84 -79 94 -70 3 3 6 2 6 -4 0 -10 93 -83
106 -83 3 0 3 8 0 18 -2 9 -14 61 -26 114 l-22 98 -99 70 c-55 38 -102 70
-104 70 -2 0 1 -15 8 -34z"/>
<path d="M3720 881 c0 -17 4 -32 8 -35 4 -2 6 11 4 30 -5 42 -12 45 -12 5z"/>
<path d="M3872 845 c0 -16 2 -22 5 -12 2 9 2 23 0 30 -3 6 -5 -1 -5 -18z"/>
<path d="M4123 827 c15 -14 27 -37 27 -50 0 -18 19 -36 86 -82 47 -32 89 -68
94 -80 4 -11 14 -55 21 -97 9 -54 18 -79 32 -87 10 -7 20 -11 22 -9 2 2 -5 46
-16 98 -10 52 -20 108 -21 123 -1 17 -11 33 -23 39 -11 6 -65 44 -120 83 -118
84 -140 98 -102 62z"/>
<path d="M3142 819 c4 -12 48 -46 48 -37 0 2 -12 15 -26 27 -15 13 -24 17 -22
10z"/>
<path d="M3205 773 c20 -18 80 -60 105 -72 23 -11 23 -10 -4 12 -28 24 -121
79 -101 60z"/>
<path d="M5059 737 c12 -14 32 -63 47 -118 14 -52 30 -98 35 -104 5 -5 9 -19
9 -31 0 -13 5 -26 11 -30 8 -4 9 1 4 15 -6 20 1 17 62 -20 37 -23 73 -47 78
-54 6 -6 37 -30 70 -52 33 -22 71 -50 84 -62 13 -12 28 -21 33 -21 4 0 8 -9 8
-20 0 -12 20 -34 53 -58 28 -22 54 -38 56 -36 1 1 -11 46 -29 98 -17 53 -30
101 -28 106 2 6 19 -3 39 -20 35 -28 37 -29 53 -11 18 20 36 4 -199 177 -222
163 -370 264 -388 264 -20 0 -20 -1 2 -23z"/>
<path d="M3345 680 c3 -5 8 -10 11 -10 2 0 4 5 4 10 0 6 -5 10 -11 10 -5 0 -7
-4 -4 -10z"/>
<path d="M2670 655 c-1 -5 -2 -13 -1 -17 0 -6 -561 -557 -624 -611 l-30 -26
195 -1 195 0 35 33 c20 17 46 41 59 52 l23 20 -4 -42 c-2 -24 -1 -43 2 -43 3
0 20 16 39 35 l34 34 9 178 c4 98 11 184 13 192 3 7 12 10 20 7 10 -3 15 1 15
13 0 32 22 29 84 -11 32 -21 63 -38 68 -38 4 0 8 -39 8 -87 l0 -88 50 -30 50
-29 0 -84 0 -84 -37 23 c-21 12 -42 26 -48 31 -16 14 -28 9 -15 -7 14 -17 118
-75 134 -75 6 0 3 5 -6 11 -15 8 -18 25 -18 94 l0 84 130 -77 c110 -65 129
-80 124 -97 -4 -14 -3 -16 4 -6 7 10 14 10 30 2 27 -14 462 -15 462 -1 0 6 -5
10 -10 10 -6 0 -37 17 -68 39 -31 21 -104 66 -162 100 -132 78 -307 189 -680
431 -38 25 -71 52 -74 60 -2 8 -5 11 -6 5z"/>
<path d="M2810 630 c0 -5 14 -17 31 -25 17 -9 28 -19 25 -22 -3 -3 5 -14 17
-24 12 -10 16 -18 10 -19 -7 0 -13 4 -13 8 0 8 -43 32 -56 32 -12 0 8 -20 34
-33 66 -34 267 -170 264 -179 -1 -5 2 -7 8 -3 9 6 132 -67 230 -135 14 -9 35
-20 47 -24 12 -4 27 -13 33 -21 7 -8 18 -15 24 -15 6 0 3 5 -7 11 -9 6 -15 15
-11 20 3 5 0 8 -6 7 -7 -2 -14 8 -16 21 -6 33 -14 40 -14 13 0 -28 -6 -27 -56
6 -23 15 -74 47 -113 72 -308 192 -331 208 -331 234 0 18 -12 33 -44 56 -48
32 -56 35 -56 20z"/>
<path d="M4430 597 c0 -14 20 -37 31 -37 4 0 5 9 2 19 -6 22 -33 37 -33 18z"/>
<path d="M2830 590 c8 -5 20 -10 25 -10 6 0 3 5 -5 10 -8 5 -19 10 -25 10 -5
0 -3 -5 5 -10z"/>
<path d="M3763 530 c0 -25 2 -35 4 -22 2 12 2 32 0 45 -2 12 -4 2 -4 -23z"/>
<path d="M4516 537 c7 -35 31 -59 115 -113 l56 -36 23 -98 c16 -69 29 -101 42
-109 11 -7 21 -11 23 -9 1 2 -10 56 -25 121 -15 65 -28 121 -28 125 -1 4 -49
39 -106 79 l-105 72 5 -32z"/>
<path d="M4801 524 c0 -11 3 -14 6 -6 3 7 2 16 -1 19 -3 4 -6 -2 -5 -13z"/>
<path d="M4811 484 c0 -11 3 -14 6 -6 3 7 2 16 -1 19 -3 4 -6 -2 -5 -13z"/>
<path d="M3772 440 c0 -19 2 -27 5 -17 2 9 2 25 0 35 -3 9 -5 1 -5 -18z"/>
<path d="M4177 443 c18 -16 33 -39 35 -53 3 -22 70 -75 176 -138 7 -5 23 -57
35 -116 18 -90 26 -111 46 -124 22 -15 23 -15 18 3 -3 11 -16 76 -28 143 l-23
124 -114 76 c-63 43 -123 85 -134 95 -12 9 -26 17 -32 17 -5 0 4 -12 21 -27z"/>
<path d="M4810 420 c13 -24 35 -27 26 -4 -3 9 -6 18 -6 20 0 2 -7 4 -15 4 -13
0 -14 -4 -5 -20z"/>
<path d="M5142 433 c-9 -3 -7 -10 9 -24 14 -12 31 -54 50 -119 15 -56 33 -108
39 -116 7 -7 10 -20 7 -28 -3 -8 1 -22 9 -33 14 -17 15 -17 9 5 -4 12 -4 22
-1 22 3 0 32 -16 65 -35 32 -19 64 -35 70 -35 6 0 11 -6 11 -14 0 -8 16 -23
36 -35 28 -17 52 -21 124 -21 62 0 90 4 93 13 4 9 7 9 18 0 7 -7 26 -13 41
-13 46 0 32 22 -55 82 -45 31 -134 94 -197 140 -142 103 -308 218 -312 217 -2
0 -9 -3 -16 -6z"/>
<path d="M3161 404 c0 -11 3 -14 6 -6 3 7 2 16 -1 19 -3 4 -6 -2 -5 -13z"/>
<path d="M3690 381 c24 -20 40 -26 40 -16 0 2 -15 12 -32 20 l-33 16 25 -20z"/>
<path d="M2295 320 c3 -5 8 -10 11 -10 2 0 4 5 4 10 0 6 -5 10 -11 10 -5 0 -7
-4 -4 -10z"/>
<path d="M4500 215 c0 -21 17 -45 32 -45 14 0 9 17 -12 41 -19 23 -19 23 -20
4z"/>
<path d="M2184 198 l-19 -23 23 19 c21 18 27 26 19 26 -2 0 -12 -10 -23 -22z"/>
<path d="M4583 173 c9 -11 17 -29 17 -40 0 -26 157 -133 195 -133 47 0 25 25
-92 105 -129 88 -147 98 -120 68z"/>
<path d="M567 133 c3 -7 9 -10 14 -7 14 8 11 21 -5 21 -8 0 -12 -6 -9 -14z"/>
<path d="M2650 126 c0 -7 -25 -37 -55 -65 -30 -29 -55 -54 -55 -57 0 -2 72 -4
159 -4 147 0 190 7 160 26 -8 4 -9 3 -5 -4 4 -7 4 -12 1 -12 -11 0 -195 110
-195 116 0 3 20 -6 44 -20 25 -14 48 -26 53 -26 10 0 -89 60 -99 60 -5 0 -8
-6 -8 -14z"/>
<path d="M3813 95 c0 -22 2 -30 4 -17 2 12 2 30 0 40 -3 9 -5 -1 -4 -23z"/>
<path d="M4175 70 c3 -5 8 -10 11 -10 2 0 4 5 4 10 0 6 -5 10 -11 10 -5 0 -7
-4 -4 -10z"/>
<path d="M5249 69 c-11 -6 -9 -12 9 -29 12 -11 22 -25 22 -30 0 -6 21 -10 46
-10 53 0 52 6 -14 47 -32 20 -54 28 -63 22z"/>
<path d="M2462 39 c-19 -17 -31 -33 -27 -37 4 -4 10 -1 12 6 3 6 9 12 14 12 6
0 8 -4 5 -9 -3 -5 5 -8 18 -8 19 0 23 5 24 33 1 19 -2 34 -6 34 -4 0 -22 -14
-40 -31z"/>
<path d="M4900 62 c0 -18 12 -42 21 -42 14 0 10 26 -6 40 -9 8 -15 8 -15 2z"/>
<path d="M3775 20 c18 -20 45 -27 45 -12 0 8 -43 32 -57 32 -3 0 2 -9 12 -20z"/>
<path d="M4246 20 c12 -12 28 -20 35 -18 9 3 0 12 -21 22 l-35 18 21 -22z"/>
<path d="M3981 14 c0 -11 3 -14 6 -6 3 7 2 16 -1 19 -3 4 -6 -2 -5 -13z"/>
</g>
</svg>
