<svg width="99" height="85" viewBox="0 0 99 85" fill="none" xmlns="http://www.w3.org/2000/svg">
<path d="M27.5 74.375C23.1 74.375 18.7 70.6562 16.5 69.0625C5.5 61.625 2.2 58.9688 0 57.375V79.6875C0 82.621 2.46297 85 5.5 85H49.5C52.537 85 55 82.621 55 79.6875V57.375C52.8 58.9688 49.5 61.625 38.5 69.0625C36.3 70.6562 31.9 74.375 27.5 74.375ZM49.5 42.5H5.5C2.46297 42.5 0 44.879 0 47.8125V50.4688C4.4 53.6562 3.85 53.6562 19.8 64.8125C21.45 65.875 24.75 69.0625 27.5 69.0625C30.25 69.0625 33.55 65.875 35.2 65.3438C51.15 54.1875 50.6 54.1875 55 51V47.8125C55 44.879 52.537 42.5 49.5 42.5ZM93.5 26.5625H38.5C35.463 26.5625 33 28.9415 33 31.875V37.1875H49.5C55.208 37.1875 59.9139 41.4076 60.4502 46.7865L60.5 46.75V69.0625H93.5C96.537 69.0625 99 66.6835 99 63.75V31.875C99 28.9415 96.537 26.5625 93.5 26.5625ZM88 47.8125H77V37.1875H88V47.8125ZM27.5 31.875C27.5 26.0163 32.4345 21.25 38.5 21.25H77V5.3125C77 2.379 74.537 0 71.5 0H16.5C13.463 0 11 2.379 11 5.3125V37.1875H27.5V31.875Z" fill="black"/>
</svg>
