<svg width="77" height="86" viewBox="0 0 77 86" fill="none" xmlns="http://www.w3.org/2000/svg">
<path d="M74.2027 4.13202L58.5621 0.100767C56.8627 -0.335952 55.1182 0.655063 54.4264 2.43553L47.2076 21.248C46.576 22.8941 46.9971 24.8258 48.2453 25.9512L57.359 34.2824C51.9449 47.1656 42.4853 57.882 30.7098 64.0465L23.2504 53.8676C22.2277 52.4734 20.5133 52.0031 19.0394 52.7086L2.1957 60.7711C0.586518 61.5605 -0.300786 63.509 0.0902292 65.407L3.6996 82.8758C4.07558 84.6898 5.51933 86 7.21874 86C45.7338 86 77 51.1465 77 8.06249C77 6.18124 75.842 4.55194 74.2027 4.13202Z" fill="black"/>
</svg>
