<svg width="129" height="106" viewBox="0 0 129 106" fill="none" xmlns="http://www.w3.org/2000/svg">
<path d="M4.60714 45.4286H124.393C125.615 45.4286 126.787 45.0297 127.651 44.3198C128.515 43.6098 129 42.6469 129 41.6429V34.0714C129 33.0674 128.515 32.1045 127.651 31.3945C126.787 30.6846 125.615 30.2857 124.393 30.2857H4.60714C3.38525 30.2857 2.21341 30.6846 1.3494 31.3945C0.485394 32.1045 0 33.0674 0 34.0714L0 41.6429C0 42.6469 0.485394 43.6098 1.3494 44.3198C2.21341 45.0297 3.38525 45.4286 4.60714 45.4286ZM124.393 90.8571H4.60714C3.38525 90.8571 2.21341 91.256 1.3494 91.966C0.485394 92.6759 0 93.6388 0 94.6429L0 102.214C0 103.218 0.485394 104.181 1.3494 104.891C2.21341 105.601 3.38525 106 4.60714 106H124.393C125.615 106 126.787 105.601 127.651 104.891C128.515 104.181 129 103.218 129 102.214V94.6429C129 93.6388 128.515 92.6759 127.651 91.966C126.787 91.256 125.615 90.8571 124.393 90.8571ZM125.306 9.23614e-07H49.7658C49.2805 -0.000310225 48.8 0.077997 48.3516 0.230443C47.9032 0.38289 47.4958 0.606484 47.1526 0.888434C46.8095 1.17038 46.5374 1.50516 46.3519 1.8736C46.1664 2.24205 46.071 2.63693 46.0714 3.03567V12.1072C46.071 12.5059 46.1664 12.9008 46.3519 13.2693C46.5374 13.6377 46.8095 13.9725 47.1526 14.2544C47.4958 14.5364 47.9032 14.76 48.3516 14.9124C48.8 15.0649 49.2805 15.1432 49.7658 15.1429H125.306C125.791 15.1432 126.271 15.0649 126.72 14.9124C127.168 14.76 127.576 14.5364 127.919 14.2544C128.262 13.9725 128.534 13.6377 128.72 13.2693C128.905 12.9008 129 12.5059 129 12.1072V3.03567C129 2.63693 128.905 2.24205 128.72 1.8736C128.534 1.50516 128.262 1.17038 127.919 0.888434C127.576 0.606484 127.168 0.38289 126.72 0.230443C126.271 0.077997 125.791 -0.000310225 125.306 9.23614e-07ZM125.306 60.5714H49.7658C49.2805 60.5711 48.8 60.6494 48.3516 60.8019C47.9032 60.9543 47.4958 61.1779 47.1526 61.4599C46.8095 61.7418 46.5374 62.0766 46.3519 62.445C46.1664 62.8135 46.071 63.2084 46.0714 63.6071V72.6786C46.071 73.0774 46.1664 73.4722 46.3519 73.8407C46.5374 74.2091 46.8095 74.5439 47.1526 74.8259C47.4958 75.1078 47.9032 75.3314 48.3516 75.4838C48.8 75.6363 49.2805 75.7146 49.7658 75.7143H125.306C125.791 75.7146 126.271 75.6363 126.72 75.4838C127.168 75.3314 127.576 75.1078 127.919 74.8259C128.262 74.5439 128.534 74.2091 128.72 73.8407C128.905 73.4722 129 73.0774 129 72.6786V63.6071C129 63.2084 128.905 62.8135 128.72 62.445C128.534 62.0766 128.262 61.7418 127.919 61.4599C127.576 61.1779 127.168 60.9543 126.72 60.8019C126.271 60.6494 125.791 60.5711 125.306 60.5714Z" fill="black"/>
</svg>
