<svg width="129" height="106" viewBox="0 0 129 106" fill="none" xmlns="http://www.w3.org/2000/svg">
<path d="M124.393 60.5714L4.60714 60.5714C3.38525 60.5714 2.2134 60.9703 1.3494 61.6802C0.485389 62.3902 -1.90735e-06 63.3531 -1.90735e-06 64.3571V71.9286C-1.90735e-06 72.9326 0.485389 73.8955 1.3494 74.6055C2.2134 75.3154 3.38525 75.7143 4.60714 75.7143L124.393 75.7143C125.615 75.7143 126.787 75.3154 127.651 74.6055C128.515 73.8955 129 72.9326 129 71.9286V64.3571C129 63.3531 128.515 62.3902 127.651 61.6802C126.787 60.9703 125.615 60.5714 124.393 60.5714ZM4.60714 15.1429L124.393 15.1429C125.615 15.1429 126.787 14.744 127.651 14.034C128.515 13.3241 129 12.3612 129 11.3571V3.78571C129 2.78168 128.515 1.81876 127.651 1.1088C126.787 0.398845 125.615 -2.86102e-06 124.393 -2.86102e-06L4.60714 -2.86102e-06C3.38525 -2.86102e-06 2.2134 0.398845 1.3494 1.1088C0.485389 1.81876 -1.90735e-06 2.78168 -1.90735e-06 3.78571V11.3571C-1.90735e-06 12.3612 0.485389 13.3241 1.3494 14.034C2.2134 14.744 3.38525 15.1429 4.60714 15.1429ZM3.69435 106L79.2342 106C79.7195 106 80.2 105.922 80.6484 105.77C81.0968 105.617 81.5042 105.394 81.8474 105.112C82.1905 104.83 82.4626 104.495 82.6481 104.126C82.8336 103.758 82.9289 103.363 82.9286 102.964V93.8928C82.9289 93.4941 82.8336 93.0992 82.6481 92.7307C82.4626 92.3623 82.1905 92.0275 81.8474 91.7456C81.5042 91.4636 81.0968 91.24 80.6484 91.0876C80.2 90.9351 79.7195 90.8568 79.2342 90.8571L3.69435 90.8571C3.20909 90.8568 2.72852 90.9351 2.28013 91.0876C1.83174 91.24 1.42433 91.4636 1.0812 91.7456C0.738075 92.0275 0.465965 92.3623 0.28044 92.7307C0.0949156 93.0992 -0.00038057 93.4941 -1.90735e-06 93.8928V102.964C-0.00038057 103.363 0.0949156 103.758 0.28044 104.126C0.465965 104.495 0.738075 104.83 1.0812 105.112C1.42433 105.394 1.83174 105.617 2.28013 105.77C2.72852 105.922 3.20909 106 3.69435 106ZM3.69435 45.4286L79.2342 45.4286C79.7195 45.4289 80.2 45.3506 80.6484 45.1981C81.0968 45.0457 81.5042 44.8221 81.8474 44.5401C82.1905 44.2582 82.4626 43.9234 82.6481 43.555C82.8336 43.1865 82.9289 42.7916 82.9286 42.3929V33.3214C82.9289 32.9226 82.8336 32.5278 82.6481 32.1593C82.4626 31.7909 82.1905 31.4561 81.8474 31.1741C81.5042 30.8922 81.0968 30.6686 80.6484 30.5162C80.2 30.3637 79.7195 30.2854 79.2342 30.2857L3.69435 30.2857C3.20909 30.2854 2.72852 30.3637 2.28013 30.5162C1.83174 30.6686 1.42433 30.8922 1.0812 31.1741C0.738075 31.4561 0.465965 31.7909 0.28044 32.1593C0.0949156 32.5278 -0.00038057 32.9226 -1.90735e-06 33.3214V42.3929C-0.00038057 42.7916 0.0949156 43.1865 0.28044 43.555C0.465965 43.9234 0.738075 44.2582 1.0812 44.5401C1.42433 44.8221 1.83174 45.0457 2.28013 45.1981C2.72852 45.3506 3.20909 45.4289 3.69435 45.4286Z" fill="black"/>
</svg>
